<svg width="70.498047" height="70.497559" viewBox="0 0 70.498 70.4976" fill="none" xmlns="http://www.w3.org/2000/svg" xmlns:xlink="http://www.w3.org/1999/xlink">
	<desc>
			Created with Pixso.
	</desc>
	<defs/>
	<path id="2" d="M35 0L4.68 17.5L4.68 52.5L35 70L65.31 52.5L65.31 17.5L35 0Z" fill="#FFFFFF" fill-opacity="1.000000" fill-rule="evenodd"/>
	<path id="2" d="M4.68 17.5L4.68 52.5L35 70L65.31 52.5L65.31 17.5L35 0L4.68 17.5ZM5.68 18.07L5.68 51.92L35 68.84L64.31 51.92L64.31 18.07L35 1.15L5.68 18.07Z" fill="#0E0E0E" fill-opacity="1.000000" fill-rule="evenodd"/>
	<path id="1" d="M17.99 65.8L52.99 65.8L70.49 35.49L52.99 5.18L17.99 5.18L0.49 35.49L17.99 65.8ZM18.57 64.8L52.42 64.8L69.34 35.49L52.42 6.18L18.57 6.18L1.65 35.49L18.57 64.8Z" fill="#0E0E0E" fill-opacity="1.000000" fill-rule="evenodd"/>
	<path id="Vector" d="M24 41.5L24 34.5C24 31.71 25.1 29.04 27.07 27.07C29.04 25.1 31.71 24 34.5 24C37.28 24 39.95 25.1 41.92 27.07C43.89 29.04 45 31.71 45 34.5L45 41.5M44.31 44.31C43.87 44.75 43.28 45 42.66 45L41.5 45C40.88 45 40.28 44.75 39.85 44.31C39.41 43.87 39.16 43.28 39.16 42.66L39.16 39.16C39.16 38.54 39.41 37.95 39.85 37.51C40.28 37.07 40.88 36.83 41.5 36.83L45 36.83L45 42.66C45 43.28 44.75 43.87 44.31 44.31ZM24.68 44.31C25.12 44.75 25.71 45 26.33 45L27.5 45C28.11 45 28.71 44.75 29.14 44.31C29.58 43.87 29.83 43.28 29.83 42.66L29.83 39.16C29.83 38.54 29.58 37.95 29.14 37.51C28.71 37.07 28.11 36.83 27.5 36.83L24 36.83L24 42.66C24 43.28 24.24 43.87 24.68 44.31Z" stroke="#0E0E0E" stroke-opacity="1.000000" stroke-width="1.500000" stroke-linejoin="round" stroke-linecap="round"/>
</svg>
