<svg width="70.498047" height="70.497559" viewBox="0 0 70.498 70.4976" fill="none" xmlns="http://www.w3.org/2000/svg" xmlns:xlink="http://www.w3.org/1999/xlink">
	<desc>
			Created with Pixso.
	</desc>
	<defs/>
	<path id="2" d="M35 0L4.68 17.5L4.68 52.5L35 70L65.31 52.5L65.31 17.5L35 0Z" fill="#FFFFFF" fill-opacity="1.000000" fill-rule="evenodd"/>
	<path id="2" d="M4.68 17.5L4.68 52.5L35 70L65.31 52.5L65.31 17.5L35 0L4.68 17.5ZM5.68 18.07L5.68 51.92L35 68.84L64.31 51.92L64.31 18.07L35 1.15L5.68 18.07Z" fill="#0E0E0E" fill-opacity="1.000000" fill-rule="evenodd"/>
	<path id="1" d="M17.99 65.8L52.99 65.8L70.49 35.49L52.99 5.18L17.99 5.18L0.49 35.49L17.99 65.8ZM18.57 64.8L52.42 64.8L69.34 35.49L52.42 6.18L18.57 6.18L1.65 35.49L18.57 64.8Z" fill="#0E0E0E" fill-opacity="1.000000" fill-rule="evenodd"/>
	<path id="Vector" d="M42.42 26.43C41.72 26.14 40.96 26 40.2 26C39.44 26 38.69 26.14 37.99 26.43C37.29 26.72 36.65 27.14 36.11 27.67L34.99 28.78L33.88 27.67C32.79 26.6 31.32 26 29.79 26C28.25 26 26.78 26.6 25.69 27.67C24.6 28.75 24 30.21 24 31.73C24 33.25 24.6 34.71 25.69 35.78L34.99 45L44.3 35.78C44.84 35.25 45.26 34.62 45.55 33.92C45.85 33.23 46 32.48 46 31.73C46 30.98 45.85 30.23 45.55 29.53C45.26 28.84 44.84 28.21 44.3 27.67C43.76 27.14 43.12 26.72 42.42 26.43Z" stroke="#0E0E0E" stroke-opacity="1.000000" stroke-width="1.500000" stroke-linejoin="round"/>
</svg>
