<svg width="70.498047" height="70.497559" viewBox="0 0 70.498 70.4976" fill="none" xmlns="http://www.w3.org/2000/svg" xmlns:xlink="http://www.w3.org/1999/xlink">
	<desc>
			Created with Pixso.
	</desc>
	<defs/>
	<path id="2" d="M35 0L4.68 17.5L4.68 52.5L35 70L65.31 52.5L65.31 17.5L35 0Z" fill="#FFFFFF" fill-opacity="1.000000" fill-rule="evenodd"/>
	<path id="2" d="M4.68 17.5L4.68 52.5L35 70L65.31 52.5L65.31 17.5L35 0L4.68 17.5ZM5.68 18.07L5.68 51.92L35 68.84L64.31 51.92L64.31 18.07L35 1.15L5.68 18.07Z" fill="#0E0E0E" fill-opacity="1.000000" fill-rule="evenodd"/>
	<path id="1" d="M17.99 65.8L52.99 65.8L70.49 35.49L52.99 5.18L17.99 5.18L0.49 35.49L17.99 65.8ZM18.57 64.8L52.42 64.8L69.34 35.49L52.42 6.18L18.57 6.18L1.65 35.49L18.57 64.8Z" fill="#0E0E0E" fill-opacity="1.000000" fill-rule="evenodd"/>
	<path id="Vector" d="M39.33 36.47C38.08 37.2 36.59 37.63 35 37.63C30.58 37.63 27 34.35 27 30.31C27 26.27 30.58 23 35 23C39.41 23 43 26.27 43 30.31C43 32.89 41.53 35.16 39.33 36.47ZM30.66 36.47L29.28 46L35 42.86L40.71 46L39.33 36.47M39.33 36.47L39.33 36.46" stroke="#0E0E0E" stroke-opacity="1.000000" stroke-width="1.500000" stroke-linejoin="round" stroke-linecap="round"/>
</svg>
