<svg width="21.438965" height="21.823975" viewBox="0 0 21.439 21.824" fill="none" xmlns="http://www.w3.org/2000/svg" xmlns:xlink="http://www.w3.org/1999/xlink">
	<desc>
			Created with Pixso.
	</desc>
	<defs/>
	<path id="Vector" d="M10.72 5.31C7.67 5.31 5.22 7.81 5.22 10.91C5.22 14 7.67 16.5 10.72 16.5C13.76 16.5 16.21 14 16.21 10.91C16.21 7.81 13.76 5.31 10.72 5.31ZM10.72 14.54C8.75 14.54 7.14 12.91 7.14 10.91C7.14 8.9 8.75 7.27 10.72 7.27C12.69 7.27 14.29 8.9 14.29 10.91C14.29 12.91 12.68 14.54 10.72 14.54ZM17.72 5.08C17.72 5.81 17.14 6.39 16.44 6.39C15.72 6.39 15.16 5.8 15.16 5.08C15.16 4.36 15.73 3.78 16.44 3.78C17.14 3.78 17.72 4.36 17.72 5.08ZM21.36 6.41C21.28 4.66 20.88 3.11 19.63 1.83C18.37 0.56 16.85 0.16 15.14 0.07C13.37 -0.03 8.06 -0.03 6.29 0.07C4.58 0.15 3.06 0.55 1.8 1.83C0.54 3.11 0.16 4.65 0.07 6.4C-0.03 8.2 -0.03 13.6 0.07 15.41C0.15 17.15 0.54 18.7 1.8 19.98C3.06 21.26 4.58 21.65 6.29 21.74C8.06 21.84 13.37 21.84 15.14 21.74C16.85 21.66 18.37 21.26 19.63 19.98C20.88 18.7 21.27 17.15 21.36 15.41C21.46 13.6 21.46 8.21 21.36 6.41ZM19.07 17.34C18.7 18.29 17.98 19.03 17.03 19.41C15.62 19.98 12.28 19.85 10.72 19.85C9.16 19.85 5.81 19.98 4.4 19.41C3.46 19.03 2.74 18.3 2.36 17.34C1.8 15.9 1.93 12.49 1.93 10.91C1.93 9.32 1.81 5.91 2.36 4.47C2.73 3.52 3.46 2.78 4.4 2.4C5.81 1.83 9.16 1.96 10.72 1.96C12.28 1.96 15.63 1.83 17.03 2.4C17.97 2.78 18.69 3.51 19.07 4.47C19.63 5.91 19.5 9.32 19.5 10.91C19.5 12.49 19.63 15.91 19.07 17.34Z" fill="#FFFFFF" fill-opacity="1.000000" fill-rule="nonzero"/>
</svg>
