<svg width="24.283691" height="20.250488" viewBox="0 0 24.2837 20.2505" fill="none" xmlns="http://www.w3.org/2000/svg" xmlns:xlink="http://www.w3.org/1999/xlink">
	<desc>
			Created with Pixso.
	</desc>
	<defs/>
	<path id="Vector" d="M21.78 5.04C21.8 5.26 21.8 5.48 21.8 5.71C21.8 12.46 16.79 20.25 7.64 20.25C4.82 20.25 2.2 19.41 0 17.95C0.4 18 0.78 18.01 1.2 18.01C3.52 18.01 5.67 17.21 7.38 15.83C5.19 15.78 3.35 14.31 2.72 12.29C3.03 12.34 3.34 12.37 3.66 12.37C4.11 12.37 4.56 12.3 4.97 12.19C2.69 11.72 0.98 9.66 0.98 7.18L0.98 7.11C1.64 7.49 2.41 7.73 3.23 7.76C1.89 6.85 1.01 5.28 1.01 3.51C1.01 2.56 1.26 1.69 1.69 0.93C4.14 4.03 7.82 6.05 11.95 6.28C11.87 5.9 11.83 5.5 11.83 5.11C11.83 2.29 14.05 0 16.81 0C18.24 0 19.53 0.61 20.44 1.61C21.57 1.39 22.65 0.96 23.6 0.37C23.23 1.56 22.44 2.56 21.41 3.19C22.41 3.08 23.38 2.8 24.28 2.4C23.6 3.41 22.75 4.31 21.78 5.04Z" fill="#FFFFFF" fill-opacity="1.000000" fill-rule="nonzero"/>
</svg>
