<svg width="105.378906" height="14.785156" viewBox="0 0 105.379 14.7852" fill="none" xmlns="http://www.w3.org/2000/svg" xmlns:xlink="http://www.w3.org/1999/xlink">
	<desc>
			Created with Pixso.
	</desc>
	<defs/>
	<path d="M4.53 1.88L0 1.88L0 0L11.25 0L11.25 1.88L6.71 1.88L6.71 14.54L4.53 14.54L4.53 1.88ZM18.3 5.33C16.79 5.33 15.68 6.32 15.68 8.06L15.68 14.54L13.56 14.54L13.56 0L15.66 0L15.66 5.41L15.79 5.41C16.3 4.23 17.33 3.49 19.02 3.49C21.27 3.49 22.76 4.88 22.76 7.6L22.76 14.54L20.64 14.54L20.64 7.86C20.64 6.26 19.76 5.33 18.3 5.33ZM69.01 14.54L66.93 14.54L66.93 0L69.06 0L69.06 5.4L69.19 5.4C69.56 4.73 70.29 3.49 72.32 3.49C74.95 3.49 76.9 5.57 76.9 9.11C76.9 12.64 74.98 14.76 72.34 14.76C70.35 14.76 69.57 13.54 69.19 12.84L69.01 12.84L69.01 14.54ZM34.85 11.81C34.36 13.59 32.68 14.76 30.3 14.76C27.08 14.76 25.11 12.54 25.11 9.16C25.11 5.81 27.11 3.49 30.15 3.49C32.63 3.49 34.98 5.03 34.98 8.97L34.98 9.73L27.22 9.73C27.28 11.83 28.5 13.01 30.33 13.01C31.53 13.01 32.45 12.48 32.84 11.45L34.85 11.81ZM39.47 14.54L37.35 14.54L37.35 3.63L39.39 3.63L39.39 5.41L39.52 5.41C39.98 4.21 41.05 3.49 42.49 3.49C43.95 3.49 44.95 4.21 45.42 5.41L45.53 5.41C46.06 4.24 47.24 3.49 48.81 3.49C50.78 3.49 52.18 4.73 52.18 7.23L52.18 14.54L50.06 14.54L50.06 7.43C50.06 5.95 49.13 5.32 48.01 5.32C46.62 5.32 45.82 6.27 45.82 7.59L45.82 14.54L43.7 14.54L43.7 7.29C43.7 6.1 42.89 5.32 41.71 5.32C40.5 5.32 39.47 6.34 39.47 7.82L39.47 14.54ZM64.26 11.81C63.78 13.59 62.1 14.76 59.72 14.76C56.5 14.76 54.53 12.54 54.53 9.16C54.53 5.81 56.53 3.49 59.57 3.49C62.04 3.49 64.4 5.03 64.4 8.97L64.4 9.73L56.64 9.73C56.7 11.83 57.92 13.01 59.74 13.01C60.95 13.01 61.87 12.48 62.26 11.45L64.26 11.81ZM85.68 13.05C85.27 13.87 84.26 14.78 82.46 14.78C80.38 14.78 78.77 13.6 78.77 11.46C78.77 8.98 80.88 8.44 82.95 8.2C84.91 7.97 85.71 7.98 85.71 7.21L85.71 7.16C85.71 5.93 85.01 5.21 83.63 5.21C82.21 5.21 81.41 5.95 81.1 6.73L79.1 6.27C79.81 4.29 81.63 3.49 83.6 3.49C85.34 3.49 87.84 4.12 87.84 7.29L87.84 14.54L85.76 14.54L85.76 13.05L85.68 13.05ZM95.01 12.75C96.2 12.75 97.58 11.87 97.58 10.01L97.58 3.63L99.71 3.63L99.71 14.54L97.62 14.54L97.62 12.65L97.5 12.65C97 13.82 95.88 14.68 94.24 14.68C92.15 14.68 90.66 13.28 90.66 10.57L90.66 3.63L92.79 3.63L92.79 10.32C92.79 11.8 93.69 12.75 95.01 12.75ZM30.17 5.24C28.44 5.24 27.32 6.59 27.23 8.13L32.9 8.13C32.89 6.46 31.81 5.24 30.17 5.24ZM59.59 5.24C57.86 5.24 56.74 6.59 56.65 8.13L62.32 8.13C62.31 6.46 61.23 5.24 59.59 5.24ZM71.87 5.29C70.01 5.29 69.01 6.81 69.01 9.09C69.01 11.38 70.04 12.94 71.87 12.94C73.76 12.94 74.76 11.27 74.76 9.09C74.76 6.92 73.79 5.29 71.87 5.29ZM80.85 11.49C80.85 12.54 81.71 13.08 82.92 13.08C84.68 13.08 85.71 11.9 85.71 10.61L85.71 9.2C85.41 9.51 83.77 9.69 83.09 9.78C81.86 9.95 80.85 10.35 80.85 11.49ZM105.37 13.26C105.37 14.04 104.73 14.68 103.95 14.68C103.17 14.68 102.53 14.04 102.53 13.26C102.53 12.48 103.17 11.84 103.95 11.84C104.73 11.84 105.37 12.48 105.37 13.26Z" fill="#FFFFFF" fill-opacity="1.000000" fill-rule="evenodd"/>
</svg>
