<svg width="16.998535" height="18.166992" viewBox="0 0 16.9985 18.167" fill="none" xmlns="http://www.w3.org/2000/svg" xmlns:xlink="http://www.w3.org/1999/xlink">
	<desc>
			Created with Pixso.
	</desc>
	<defs/>
	<path id="Vector" d="M15.25 4.52C15.26 4.72 15.26 4.92 15.26 5.12C15.26 11.18 11.75 18.16 5.34 18.16C3.37 18.16 1.54 17.41 0 16.1C0.28 16.15 0.55 16.16 0.84 16.16C2.46 16.16 3.96 15.44 5.16 14.2C3.63 14.16 2.35 12.84 1.9 11.02C2.12 11.07 2.34 11.09 2.56 11.09C2.87 11.09 3.19 11.04 3.48 10.94C1.88 10.51 0.69 8.67 0.69 6.44L0.69 6.38C1.15 6.72 1.69 6.94 2.26 6.96C1.32 6.14 0.71 4.74 0.71 3.15C0.71 2.29 0.88 1.51 1.18 0.83C2.9 3.61 5.47 5.43 8.36 5.63C8.31 5.29 8.28 4.93 8.28 4.58C8.28 2.05 9.83 0 11.76 0C12.77 0 13.67 0.55 14.31 1.44C15.1 1.24 15.85 0.86 16.52 0.34C16.26 1.4 15.71 2.29 14.99 2.86C15.69 2.76 16.37 2.51 16.99 2.15C16.52 3.06 15.93 3.87 15.25 4.52Z" fill="#FFFFFF" fill-opacity="1.000000" fill-rule="nonzero"/>
</svg>
