<svg width="15.007324" height="19.579102" viewBox="0 0 15.0073 19.5791" fill="none" xmlns="http://www.w3.org/2000/svg" xmlns:xlink="http://www.w3.org/1999/xlink">
	<desc>
			Created with Pixso.
	</desc>
	<defs/>
	<path id="Vector" d="M7.5 4.76C5.37 4.76 3.65 7.01 3.65 9.78C3.65 12.56 5.37 14.8 7.5 14.8C9.63 14.8 11.35 12.56 11.35 9.78C11.35 7.01 9.63 4.76 7.5 4.76ZM7.5 13.05C6.12 13.05 5 11.58 5 9.78C5 7.98 6.12 6.52 7.5 6.52C8.88 6.52 10 7.98 10 9.78C10 11.58 8.88 13.05 7.5 13.05ZM12.4 4.56C12.4 5.21 12 5.73 11.5 5.73C11.01 5.73 10.61 5.21 10.61 4.56C10.61 3.91 11.01 3.39 11.5 3.39C12 3.39 12.4 3.91 12.4 4.56ZM14.95 5.75C14.89 4.18 14.62 2.79 13.74 1.65C12.86 0.5 11.8 0.14 10.59 0.06C9.35 -0.03 5.64 -0.03 4.4 0.06C3.2 0.14 2.14 0.5 1.26 1.64C0.38 2.79 0.11 4.17 0.05 5.74C-0.02 7.36 -0.02 12.21 0.05 13.82C0.1 15.39 0.38 16.78 1.26 17.92C2.14 19.07 3.2 19.43 4.4 19.51C5.64 19.6 9.35 19.6 10.59 19.51C11.8 19.43 12.86 19.07 13.74 17.92C14.61 16.78 14.89 15.39 14.95 13.82C15.02 12.21 15.02 7.36 14.95 5.75ZM13.35 15.56C13.09 16.41 12.58 17.07 11.92 17.42C10.94 17.93 8.59 17.81 7.5 17.81C6.41 17.81 4.06 17.92 3.08 17.42C2.42 17.08 1.92 16.42 1.65 15.56C1.26 14.27 1.35 11.21 1.35 9.78C1.35 8.36 1.26 5.3 1.65 4.01C1.91 3.16 2.42 2.5 3.08 2.15C4.07 1.64 6.41 1.76 7.5 1.76C8.59 1.76 10.94 1.65 11.92 2.15C12.58 2.49 13.08 3.15 13.35 4.01C13.74 5.3 13.65 8.36 13.65 9.78C13.65 11.21 13.74 14.27 13.35 15.56Z" fill="#FFFFFF" fill-opacity="1.000000" fill-rule="nonzero"/>
</svg>
