<svg width="90.000000" height="90.000000" viewBox="0 0 90 90" fill="none" xmlns="http://www.w3.org/2000/svg" xmlns:xlink="http://www.w3.org/1999/xlink">
	<desc>
			Created with Pixso.
	</desc>
	<defs/>
	<circle id="bg" cx="45.000000" cy="45.000000" r="45.000000" fill="#FFFFFF" fill-opacity="1.000000"/>
	<path id="view" d="M39.68 39.6C39.68 40.13 39.22 40.55 38.67 40.55C38.12 40.55 37.66 40.13 37.66 39.6C37.66 39.08 38.12 38.65 38.67 38.65C39.22 38.65 39.68 39.08 39.68 39.6ZM48.53 47.95C48.17 49.28 46.91 50.16 45.12 50.16C42.71 50.16 41.23 48.5 41.23 45.96C41.23 43.44 42.73 41.71 45.01 41.71C46.87 41.71 48.64 42.86 48.64 45.82L48.64 46.38L42.82 46.38C42.86 47.96 43.78 48.85 45.14 48.85C46.05 48.85 46.74 48.45 47.03 47.68L48.53 47.95ZM34.66 41.81L36.37 41.81L33.4 50L31.7 50L28.72 41.81L30.43 41.81L32.51 48.11L32.59 48.11L34.66 41.81ZM39.46 50L37.86 50L37.86 41.81L39.46 41.81L39.46 50ZM53.78 50L52.16 50L49.75 41.81L51.4 41.81L53.01 47.82L53.08 47.82L54.69 41.81L56.34 41.81L57.93 47.79L58.02 47.79L59.61 41.81L61.26 41.81L58.85 50L57.23 50L55.57 44.09L55.44 44.09L53.78 50ZM45.03 43.02C43.73 43.02 42.89 44.03 42.82 45.19L47.08 45.19C47.07 43.94 46.26 43.02 45.03 43.02Z" fill="#0E0E0E" fill-opacity="1.000000" fill-rule="evenodd"/>
</svg>
