<svg width="122.000000" height="19.000000" viewBox="0 0 122 19" fill="none" xmlns="http://www.w3.org/2000/svg" xmlns:xlink="http://www.w3.org/1999/xlink">
	<desc>
			Created with Pixso.
	</desc>
	<defs/>
	<path id="Vector" d="M116.84 3C113.9 3 111 4.91 111 8.02C111 9.99 112.13 11.12 112.82 11.12C113.1 11.12 113.26 10.34 113.26 10.12C113.26 9.86 112.59 9.31 112.59 8.22C112.59 5.97 114.34 4.37 116.61 4.37C118.56 4.37 120 5.45 120 7.45C120 8.94 119.39 11.73 117.42 11.73C116.7 11.73 116.09 11.22 116.09 10.5C116.09 9.44 116.85 8.41 116.85 7.32C116.85 5.46 114.16 5.8 114.16 8.04C114.16 8.52 114.22 9.04 114.43 9.47C114.04 11.13 113.23 13.61 113.23 15.33C113.23 15.86 113.31 16.38 113.36 16.91C113.46 17.02 113.41 17.01 113.56 16.96C115 15.02 114.95 14.64 115.6 12.11C115.95 12.76 116.87 13.12 117.59 13.12C120.63 13.12 122 10.22 122 7.6C122 4.81 119.54 3 116.84 3Z" fill="#0E0E0E" fill-opacity="1.000000" fill-rule="evenodd"/>
	<path id="Vector" d="M94.32 6.84C94.33 6.97 94.33 7.11 94.33 7.24C94.33 11.23 91.17 15.83 85.41 15.83C83.63 15.83 81.98 15.33 80.59 14.47C80.85 14.5 81.09 14.51 81.35 14.51C82.82 14.51 84.17 14.03 85.24 13.22C83.86 13.19 82.71 12.32 82.31 11.13C82.51 11.15 82.7 11.17 82.9 11.17C83.19 11.17 83.47 11.13 83.73 11.07C82.29 10.79 81.21 9.57 81.21 8.11L81.21 8.07C81.63 8.29 82.12 8.43 82.63 8.45C81.79 7.91 81.23 6.98 81.23 5.94C81.23 5.38 81.39 4.86 81.66 4.41C83.2 6.25 85.52 7.44 88.13 7.57C88.08 7.35 88.05 7.12 88.05 6.88C88.05 5.22 89.45 3.86 91.18 3.86C92.09 3.86 92.9 4.23 93.47 4.82C94.18 4.68 94.86 4.43 95.46 4.09C95.23 4.79 94.74 5.38 94.09 5.75C94.72 5.68 95.33 5.52 95.89 5.28C95.46 5.88 94.93 6.41 94.32 6.84Z" fill="#0E0E0E" fill-opacity="1.000000" fill-rule="nonzero"/>
	<path id="Vector" d="M64.14 5.15L65.3 5.15L65.3 3.09C65.1 3.06 64.41 3 63.62 3C61.96 3 60.83 4.07 60.83 6.05L60.83 7.87L59 7.87L59 10.18L60.83 10.18L60.83 16L63.07 16L63.07 10.18L64.82 10.18L65.1 7.87L63.07 7.87L63.07 6.28C63.07 5.61 63.24 5.15 64.14 5.15Z" fill="#0E0E0E" fill-opacity="1.000000" fill-rule="nonzero"/>
	<path id="Share:" d="M8.73 6.95L7.14 6.95C7.03 5.95 6.14 5.36 4.88 5.36C3.54 5.36 2.69 6.04 2.69 6.97C2.69 8.02 3.83 8.42 4.68 8.63L5.74 8.91C7.13 9.25 8.88 10.01 8.88 11.98C8.88 13.83 7.4 15.17 4.84 15.17C2.4 15.17 0.87 13.96 0.76 11.98L2.41 11.98C2.51 13.17 3.57 13.73 4.83 13.73C6.23 13.73 7.25 13.03 7.25 11.96C7.25 11 6.35 10.61 5.18 10.3L3.9 9.95C2.14 9.48 1.05 8.59 1.05 7.07C1.05 5.19 2.73 3.94 4.92 3.94C7.14 3.94 8.68 5.21 8.73 6.95ZM14.27 8.08C13.14 8.08 12.31 8.83 12.31 10.14L12.31 15L10.72 15L10.72 4.09L12.29 4.09L12.29 8.14L12.39 8.14C12.77 7.26 13.54 6.71 14.81 6.71C16.5 6.71 17.62 7.75 17.62 9.79L17.62 15L16.02 15L16.02 9.98C16.02 8.78 15.37 8.08 14.27 8.08ZM29.88 15L28.28 15L28.28 6.81L29.83 6.81L29.83 8.11L29.91 8.11C30.21 7.23 31.03 6.69 31.99 6.69C32.19 6.69 32.5 6.71 32.66 6.73L32.66 8.25C32.54 8.21 32.16 8.15 31.83 8.15C30.7 8.15 29.88 8.93 29.88 10L29.88 15ZM24.55 13.88C24.24 14.49 23.48 15.17 22.13 15.17C20.57 15.17 19.36 14.29 19.36 12.68C19.36 10.82 20.95 10.42 22.5 10.24C23.97 10.07 24.57 10.08 24.57 9.5L24.57 9.46C24.57 8.54 24.04 8 23.01 8C21.94 8 21.35 8.55 21.11 9.14L19.61 8.8C20.14 7.3 21.51 6.71 22.99 6.71C24.29 6.71 26.16 7.18 26.16 9.56L26.16 15L24.61 15L24.61 13.88L24.55 13.88ZM40.68 12.95C40.32 14.28 39.06 15.16 37.28 15.16C34.86 15.16 33.38 13.5 33.38 10.96C33.38 8.44 34.88 6.71 37.17 6.71C39.02 6.71 40.79 7.86 40.79 10.82L40.79 11.38L34.97 11.38C35.01 12.96 35.93 13.85 37.29 13.85C38.2 13.85 38.89 13.45 39.18 12.68L40.68 12.95ZM44.68 8.08C44.68 8.67 44.19 9.14 43.61 9.14C43.02 9.14 42.54 8.67 42.54 8.08C42.54 7.5 43.02 7.02 43.61 7.02C44.19 7.02 44.68 7.5 44.68 8.08ZM37.18 8.02C35.88 8.02 35.04 9.03 34.98 10.19L39.23 10.19C39.22 8.94 38.41 8.02 37.18 8.02ZM20.92 12.71C20.92 13.49 21.57 13.9 22.47 13.9C23.8 13.9 24.57 13.01 24.57 12.04L24.57 10.99C24.34 11.22 23.12 11.36 22.6 11.42C21.68 11.55 20.92 11.85 20.92 12.71ZM44.68 14.03C44.68 14.62 44.19 15.1 43.61 15.1C43.02 15.1 42.54 14.62 42.54 14.03C42.54 13.45 43.02 12.97 43.61 12.97C44.19 12.97 44.68 13.45 44.68 14.03Z" fill="#0E0E0E" fill-opacity="1.000000" fill-rule="evenodd"/>
</svg>
