<svg width="217.606201" height="14.487305" viewBox="0 0 217.606 14.4873" fill="none" xmlns="http://www.w3.org/2000/svg" xmlns:xlink="http://www.w3.org/1999/xlink">
	<desc>
			Created with Pixso.
	</desc>
	<defs/>
	<path id="Tags: company, design, travel" d="M152 0.85C152 1.32 151.6 1.7 151.11 1.7C150.62 1.7 150.21 1.32 150.21 0.85C150.21 0.38 150.62 0 151.11 0C151.6 0 152 0.38 152 0.85ZM3.39 1.75L0 1.75L0 0.34L8.44 0.34L8.44 1.75L5.03 1.75L5.03 11.25L3.39 11.25L3.39 1.75ZM130.05 9.99C129.78 10.44 129.24 11.42 127.67 11.42C125.62 11.42 124.19 9.78 124.19 7.18C124.19 4.6 125.62 2.96 127.69 2.96C129.29 2.96 129.78 3.94 130.05 4.36L130.16 4.36L130.16 0.34L131.42 0.34L131.42 11.25L130.2 11.25L130.2 9.99L130.05 9.99ZM216.35 0.34L217.6 0.34L217.6 11.25L216.35 11.25L216.35 0.34ZM182.17 3.06L183.92 3.06L183.92 4.13L182.17 4.13L182.17 8.9C182.17 9.97 182.7 10.14 183.26 10.14C183.53 10.14 183.71 10.1 183.81 10.07L184.07 11.2C183.9 11.27 183.6 11.35 183.13 11.35C182.06 11.35 180.91 10.67 180.91 9.24L180.91 4.13L179.68 4.13L179.68 3.06L180.91 3.06L180.91 1.1L182.17 1.1L182.17 3.06ZM187.07 11.25L185.81 11.25L185.81 3.06L187.03 3.06L187.03 4.3L187.11 4.3C187.41 3.49 188.26 2.94 189.24 2.94C189.43 2.94 189.76 2.95 189.9 2.96L189.9 4.24C189.82 4.21 189.47 4.15 189.14 4.15C187.94 4.15 187.07 4.96 187.07 6.07L187.07 11.25ZM13.86 10.13C13.56 10.74 12.8 11.42 11.45 11.42C9.89 11.42 8.68 10.54 8.68 8.93C8.68 7.07 10.27 6.67 11.82 6.49C13.29 6.32 13.88 6.33 13.88 5.75L13.88 5.71C13.88 4.79 13.36 4.25 12.33 4.25C11.26 4.25 10.66 4.8 10.43 5.39L8.93 5.05C9.46 3.55 10.83 2.96 12.31 2.96C13.61 2.96 15.48 3.43 15.48 5.81L15.48 11.25L13.92 11.25L13.92 10.13L13.86 10.13ZM24.72 11.42C24.72 13.53 23.11 14.48 21.03 14.48C19.08 14.48 17.98 13.63 17.55 12.63L18.92 12.07C19.2 12.53 19.72 13.2 21.05 13.2C22.26 13.2 23.14 12.65 23.14 11.36L23.14 9.75L23.03 9.75C22.75 10.27 22.17 11.12 20.66 11.12C18.73 11.12 17.24 9.73 17.24 7.12C17.24 4.52 18.7 2.96 20.68 2.96C22.2 2.96 22.76 3.88 23.05 4.39L23.16 4.39L23.16 3.06L24.72 3.06L24.72 11.42ZM29.89 2.96C31.66 2.96 32.66 3.79 32.99 5.06L31.55 5.32C31.36 4.77 30.9 4.22 29.91 4.22C29.01 4.22 28.32 4.67 28.33 5.29C28.32 5.85 28.71 6.15 29.61 6.37L30.91 6.66C32.41 7.01 33.15 7.73 33.15 8.88C33.15 10.36 31.78 11.41 29.81 11.41C27.97 11.41 26.76 10.6 26.5 9.15L28.04 8.91C28.23 9.72 28.84 10.13 29.79 10.13C30.84 10.13 31.52 9.63 31.52 9C31.52 8.49 31.15 8.14 30.36 7.96L28.97 7.66C27.44 7.32 26.74 6.54 26.74 5.38C26.74 3.93 28.05 2.96 29.89 2.96ZM58.42 8.86C58.21 10.31 57.01 11.42 55.2 11.42C52.9 11.42 51.49 9.65 51.49 7.2C51.49 4.7 52.97 2.96 55.18 2.96C56.91 2.96 58.21 3.98 58.42 5.51L57.16 5.51C56.97 4.77 56.31 4.09 55.2 4.09C53.73 4.09 52.75 5.3 52.75 7.15C52.75 9.05 53.71 10.29 55.2 10.29C56.18 10.29 56.93 9.75 57.16 8.86L58.42 8.86ZM67.28 7.2C67.28 9.73 65.79 11.42 63.58 11.42C61.36 11.42 59.87 9.73 59.87 7.2C59.87 4.64 61.36 2.96 63.58 2.96C65.79 2.96 67.28 4.64 67.28 7.2ZM70.46 11.25L69.2 11.25L69.2 3.06L70.42 3.06L70.42 4.34L70.52 4.34C70.86 3.47 71.65 2.96 72.72 2.96C73.79 2.96 74.51 3.47 74.91 4.34L75 4.34C75.42 3.5 76.28 2.96 77.45 2.96C78.9 2.96 79.94 3.85 79.94 5.77L79.94 11.25L78.68 11.25L78.68 5.77C78.68 4.56 77.92 4.09 77.02 4.09C75.87 4.09 75.21 4.86 75.21 5.92L75.21 11.25L73.93 11.25L73.93 5.64C73.93 4.71 73.27 4.09 72.31 4.09C71.33 4.09 70.46 4.93 70.46 6.13L70.46 11.25ZM83.5 14.31L82.24 14.31L82.24 3.06L83.46 3.06L83.46 4.36L83.61 4.36C83.88 3.94 84.37 2.96 85.97 2.96C88.04 2.96 89.47 4.6 89.47 7.18C89.47 9.78 88.04 11.42 85.99 11.42C84.42 11.42 83.88 10.44 83.61 9.99L83.5 9.99L83.5 14.31ZM96.22 10.14C95.96 10.67 95.21 11.44 93.79 11.44C92.23 11.44 91 10.52 91 8.92C91 7.05 92.66 6.71 94.17 6.51C95.67 6.32 96.28 6.38 96.28 5.77L96.28 5.73C96.28 4.68 95.71 4.06 94.56 4.06C93.36 4.06 92.7 4.7 92.42 5.3L91.23 4.87C91.87 3.38 93.28 2.96 94.51 2.96C95.56 2.96 97.54 3.25 97.54 5.85L97.54 11.25L96.28 11.25L96.28 10.14L96.22 10.14ZM103.19 4.09C101.98 4.09 101.1 4.89 101.1 6.32L101.1 11.25L99.84 11.25L99.84 3.06L101.06 3.06L101.06 4.34L101.16 4.34C101.55 3.51 102.31 2.96 103.55 2.96C105.2 2.96 106.32 3.96 106.32 6.04L106.32 11.25L105.06 11.25L105.06 6.13C105.06 4.85 104.35 4.09 103.19 4.09ZM140.58 9.35C140.19 10.59 138.98 11.42 137.32 11.42C134.95 11.42 133.5 9.73 133.5 7.22C133.5 4.7 134.98 2.96 137.19 2.96C138.89 2.96 140.71 4 140.71 7.05L140.71 7.58L134.77 7.58C134.83 9.33 135.84 10.29 137.32 10.29C138.3 10.29 139.04 9.86 139.36 9.01L140.58 9.35ZM145.52 2.96C147.14 2.96 148.03 3.73 148.42 4.89L147.29 5.21C147.07 4.65 146.62 4.04 145.52 4.04C144.52 4.04 143.77 4.55 143.77 5.26C143.77 5.89 144.21 6.21 145.18 6.45L146.39 6.75C147.86 7.11 148.57 7.82 148.57 8.96C148.57 10.38 147.27 11.42 145.37 11.42C143.7 11.42 142.55 10.67 142.26 9.29L143.46 8.99C143.68 9.86 144.32 10.31 145.35 10.31C146.52 10.31 147.27 9.73 147.27 9.03C147.27 8.47 146.88 8.07 146.06 7.88L144.69 7.56C143.19 7.21 142.52 6.45 142.52 5.32C142.52 3.94 143.8 2.96 145.52 2.96ZM160.86 11.48C160.86 13.59 159.28 14.48 157.33 14.48C155.5 14.48 154.49 13.7 153.98 12.84L154.98 12.14C155.32 12.59 155.84 13.38 157.33 13.38C158.65 13.38 159.61 12.76 159.61 11.4L159.61 9.73L159.5 9.73C159.22 10.18 158.71 11.12 157.11 11.12C155.13 11.12 153.64 9.67 153.64 7.11C153.64 4.6 155.07 2.96 157.14 2.96C158.73 2.96 159.25 3.94 159.52 4.36L159.65 4.36L159.65 3.06L160.86 3.06L160.86 11.48ZM166.51 4.09C165.31 4.09 164.42 4.89 164.42 6.32L164.42 11.25L163.16 11.25L163.16 3.06L164.38 3.06L164.38 4.34L164.49 4.34C164.87 3.51 165.64 2.96 166.87 2.96C168.53 2.96 169.64 3.96 169.64 6.04L169.64 11.25L168.39 11.25L168.39 6.13C168.39 4.85 167.68 4.09 166.51 4.09ZM196.23 10.14C195.98 10.67 195.23 11.44 193.8 11.44C192.25 11.44 191.01 10.52 191.01 8.92C191.01 7.05 192.67 6.71 194.19 6.51C195.68 6.32 196.3 6.38 196.3 5.77L196.3 5.73C196.3 4.68 195.73 4.06 194.57 4.06C193.37 4.06 192.72 4.7 192.44 5.3L191.25 4.87C191.89 3.38 193.29 2.96 194.53 2.96C195.57 2.96 197.55 3.25 197.55 5.85L197.55 11.25L196.3 11.25L196.3 10.14L196.23 10.14ZM214.3 9.35C213.92 10.59 212.7 11.42 211.04 11.42C208.68 11.42 207.23 9.73 207.23 7.22C207.23 4.7 208.7 2.96 210.91 2.96C212.62 2.96 214.43 4 214.43 7.05L214.43 7.58L208.49 7.58C208.55 9.33 209.57 10.29 211.04 10.29C212.03 10.29 212.77 9.86 213.08 9.01L214.3 9.35ZM111.54 12.44C111.06 13.71 110.26 14.31 109.13 14.31C108.7 14.31 108.34 14.23 108.21 14.16L108.53 13.06C109.45 13.29 110.02 13.17 110.47 11.93L110.71 11.29L107.68 3.06L109.05 3.06L111.3 9.58L111.39 9.58L113.65 3.06L115.01 3.06L111.54 12.44ZM151.72 11.25L150.46 11.25L150.46 3.06L151.72 3.06L151.72 11.25ZM204.88 3.06L206.25 3.06L203.22 11.25L201.94 11.25L198.92 3.06L200.28 3.06L202.54 9.58L202.62 9.58L204.88 3.06ZM37.01 4.33C37.01 4.92 36.53 5.39 35.95 5.39C35.36 5.39 34.88 4.92 34.88 4.33C34.88 3.75 35.36 3.27 35.95 3.27C36.53 3.27 37.01 3.75 37.01 4.33ZM61.13 7.2C61.13 8.84 61.89 10.29 63.58 10.29C65.26 10.29 66.03 8.84 66.03 7.2C66.03 5.56 65.26 4.09 63.58 4.09C61.89 4.09 61.13 5.56 61.13 7.2ZM85.82 4.09C84.29 4.09 83.48 5.32 83.48 7.15C83.48 9.01 84.31 10.29 85.82 10.29C87.4 10.29 88.21 8.9 88.21 7.15C88.21 5.43 87.42 4.09 85.82 4.09ZM125.45 7.15C125.45 8.9 126.26 10.29 127.84 10.29C129.35 10.29 130.18 9.01 130.18 7.15C130.18 5.32 129.37 4.09 127.84 4.09C126.24 4.09 125.45 5.43 125.45 7.15ZM137.19 4.09C135.75 4.09 134.85 5.22 134.77 6.5L139.43 6.5C139.43 5.11 138.55 4.09 137.19 4.09ZM154.9 7.09C154.9 8.8 155.71 9.99 157.28 9.99C158.79 9.99 159.63 8.9 159.63 7.09C159.63 5.32 158.82 4.09 157.28 4.09C155.69 4.09 154.9 5.43 154.9 7.09ZM210.91 4.09C209.47 4.09 208.57 5.22 208.49 6.5L213.15 6.5C213.15 5.11 212.28 4.09 210.91 4.09ZM18.85 7.1C18.85 8.71 19.59 9.8 21.02 9.8C22.39 9.8 23.15 8.79 23.15 7.1C23.15 5.44 22.4 4.31 21.02 4.31C19.58 4.31 18.85 5.53 18.85 7.1ZM92.26 8.99C92.26 9.86 92.98 10.31 93.98 10.31C95.47 10.31 96.28 9.31 96.28 8.28L96.28 7.13C96.07 7.39 94.64 7.54 94.11 7.6C93.13 7.73 92.26 8.03 92.26 8.99ZM192.27 8.99C192.27 9.86 193 10.31 194 10.31C195.49 10.31 196.3 9.31 196.3 8.28L196.3 7.13C196.08 7.39 194.65 7.54 194.12 7.6C193.14 7.73 192.27 8.03 192.27 8.99ZM10.24 8.96C10.24 9.74 10.89 10.15 11.79 10.15C13.12 10.15 13.89 9.26 13.89 8.29L13.89 7.24C13.66 7.47 12.43 7.61 11.92 7.67C10.99 7.8 10.24 8.1 10.24 8.96ZM37.01 10.28C37.01 10.87 36.53 11.35 35.95 11.35C35.36 11.35 34.88 10.87 34.88 10.28C34.88 9.7 35.36 9.22 35.95 9.22C36.53 9.22 37.01 9.7 37.01 10.28ZM116.67 9.75L118.04 9.75L117.95 10.33C117.77 11.54 117.23 13.18 116.97 13.91L116.01 13.91C116.15 13.23 116.45 11.79 116.61 10.35L116.67 9.75ZM172.45 9.75L173.82 9.75L173.73 10.33C173.55 11.54 173.01 13.18 172.75 13.91L171.79 13.91C171.93 13.23 172.24 11.79 172.39 10.35L172.45 9.75Z" fill="#0E0E0E" fill-opacity="1.000000" fill-rule="evenodd"/>
</svg>
