<svg width="92.000000" height="52.000000" viewBox="0 0 92 52" fill="none" xmlns="http://www.w3.org/2000/svg" xmlns:xlink="http://www.w3.org/1999/xlink">
	<desc>
			Created with Pixso.
	</desc>
	<defs>
		<filter id="filter_1_3176_dd" x="0.000000" y="0.000000" width="92.000000" height="52.000000" filterUnits="userSpaceOnUse" color-interpolation-filters="sRGB">
			<feFlood flood-opacity="0" result="BackgroundImageFix"/>
			<feBlend mode="normal" in="SourceGraphic" in2="BackgroundImageFix" result="shape"/>
			<feGaussianBlur stdDeviation="2" result="effect_layerBlur_1"/>
		</filter>
	</defs>
	<g filter="url(#filter_1_3176_dd)">
		<path id="logo" d="M27.07 23.92L17.41 10.25L17.41 18.19C17.41 20.23 17.54 23.69 21.28 23.69L21.28 23.92L13.13 23.92L13.13 23.69C16.67 23.69 17.18 20.2 17.18 18.19L17.18 9.94L15.97 8.24C14.44 6.22 13.44 6.25 12.77 6.2L12.77 6L20.94 6L29.65 18.5L29.65 11.7C29.65 9.33 28.83 6.2 25.99 6.2L25.99 6L33.75 6L33.75 6.2C30.58 6.2 29.88 9.33 29.88 11.7L29.88 23.92L27.07 23.92ZM49.84 18.93L49.84 23.92L34.88 23.92L34.88 23.69C35.95 23.69 36.36 22.16 36.36 20.43L36.36 9.51C36.36 7.93 36 6.2 34.88 6.2L34.88 6L49.5 6L49.5 11.21L49.27 11.21C49.27 6.25 42.28 6.22 42.28 6.22L41.36 6.22L41.36 14.75L43.43 14.75L43.44 14.75C43.52 14.75 46.18 14.8 46.46 11.75L46.69 11.75L46.69 17.99L46.46 17.99C46.18 14.96 43.51 14.98 43.43 14.98L43.43 14.98L41.36 14.98L41.36 23.69L42.28 23.69C42.28 23.69 49.61 23.97 49.61 18.93L49.84 18.93ZM80.55 6L80.55 6.2C79.53 6.2 77.97 6.99 76.1 11.47L71.61 23.92L70.69 23.92C68.31 18.4 66.77 14.83 65.75 12.51L61.65 23.92L60.72 23.92C54.27 8.92 53.94 8.26 53.94 8.26C53.06 6.22 52.71 6.25 52.04 6.2L52.04 6L60.03 6L60.03 6.2C59.4 6.2 59.21 6.64 59.21 7.18C59.21 8.04 59.7 9.15 59.7 9.15L63.57 17.89L65.62 12.21C64.05 8.59 63.9 8.26 63.9 8.26C63.03 6.22 62.67 6.25 62.01 6.2L62.01 6L70 6L70 6.2C69.37 6.2 69.17 6.64 69.17 7.18C69.17 8.04 69.67 9.15 69.67 9.15L73.51 17.91L75.81 11.47C75.97 11.03 76.06 10.48 76.06 9.92C76.06 8.17 75.25 6.2 73.28 6.2L73.28 6L80.55 6ZM34.51 28.07L34.51 28.27C33.48 28.27 31.92 29.06 30.05 33.54L25.57 45.99L24.65 45.99C22.26 40.47 20.73 36.9 19.7 34.59L15.6 45.99L14.68 45.99C8.22 31 7.89 30.34 7.89 30.34C7.02 28.3 6.66 28.32 6 28.27L6 28.07L13.99 28.07L13.99 28.27C13.36 28.27 13.16 28.71 13.16 29.25C13.16 30.11 13.65 31.23 13.65 31.23L17.52 39.96L19.57 34.28C18.01 30.67 17.86 30.34 17.86 30.34C16.98 28.3 16.63 28.32 15.96 28.27L15.96 28.07L23.95 28.07L23.95 28.27C23.32 28.27 23.13 28.71 23.13 29.25C23.13 30.11 23.62 31.23 23.62 31.23L27.46 39.99L29.77 33.54C29.93 33.1 30.01 32.56 30.01 31.99C30.01 30.25 29.21 28.27 27.23 28.27L27.23 28.07L34.51 28.07ZM42.32 28.07L42.45 28.07C48.93 42.84 49.36 43.68 49.36 43.68C50.29 45.72 51.16 45.74 51.67 45.79L51.67 46L42.7 46L42.7 45.79C43.52 45.79 43.77 45.32 43.77 44.74C43.77 43.89 43.22 42.81 43.22 42.81L42.4 41.06L37.38 41.06C37.26 41.32 37.2 41.69 37.2 42.12C37.2 43.63 38.01 45.79 40.4 45.79L40.4 46L33.02 46L33.02 45.79C33.79 45.74 35.17 45.54 37.15 41.06L42.32 28.07ZM69.73 28.07L69.73 28.27C68.63 28.27 66.99 29.06 64.99 33.54L59.94 46L59.2 46C52.33 31 51.98 30.34 51.98 30.34C51.05 28.3 50.67 28.32 49.95 28.27L49.95 28.07L58.48 28.07L58.48 28.27C57.8 28.27 57.59 28.71 57.59 29.25C57.59 30.11 58.12 31.23 58.12 31.23L62.1 40.01L64.73 33.54C64.94 33.03 65.06 32.41 65.06 31.78C65.06 30.07 64.21 28.27 61.97 28.27L61.97 28.07L69.73 28.07ZM86 41.01L86 46L71.03 46L71.03 45.77C72.11 45.77 72.52 44.24 72.52 42.51L72.52 31.58C72.52 30 72.16 28.27 71.03 28.27L71.03 28.07L85.66 28.07L85.66 33.29L85.43 33.29C85.43 28.32 78.44 28.3 78.44 28.3L77.51 28.3L77.51 36.83L79.59 36.83L79.59 36.83C79.68 36.83 82.34 36.87 82.61 33.82L82.84 33.82L82.84 40.06L82.61 40.06C82.33 37.03 79.66 37.06 79.59 37.06L79.59 37.06L77.51 37.06L77.51 45.77L78.44 45.77C78.44 45.77 85.76 46.05 85.76 41.01L86 41.01ZM39.73 35.1L37.45 40.83L42.29 40.83L39.73 35.1Z" fill="#FFFFFF" fill-opacity="1.000000" fill-rule="evenodd"/>
	</g>
</svg>
