<svg width="104.000000" height="52.000000" viewBox="0 0 104 52" fill="none" xmlns="http://www.w3.org/2000/svg" xmlns:xlink="http://www.w3.org/1999/xlink">
	<desc>
			Created with Pixso.
	</desc>
	<defs>
		<filter id="filter_1_3161_dd" x="0.000000" y="0.000000" width="104.000000" height="52.000000" filterUnits="userSpaceOnUse" color-interpolation-filters="sRGB">
			<feFlood flood-opacity="0" result="BackgroundImageFix"/>
			<feBlend mode="normal" in="SourceGraphic" in2="BackgroundImageFix" result="shape"/>
			<feGaussianBlur stdDeviation="2" result="effect_layerBlur_1"/>
		</filter>
	</defs>
	<g filter="url(#filter_1_3161_dd)">
		<path id="logo" d="M12.41 33.91C12.38 33.8 12.21 33.65 12.15 33.54C12.24 33.39 12.36 33.32 12.41 33.21C12.49 32.87 12.49 32.5 12.57 32.17C12.58 32.02 12.6 31.91 12.61 31.76C12.81 31.37 12.9 31.01 12.9 30.63C12.9 30.54 12.89 30.45 12.88 30.35C12.89 30.28 13.02 30.09 13.04 29.94C13.05 29.93 13.05 29.92 13.06 29.91C13.1 29.85 13.15 29.78 13.15 29.72C13.15 29.71 13.15 29.69 13.14 29.68C13.12 29.65 13.11 29.6 13.11 29.56C13.11 29.43 13.2 29.28 13.36 29.09C13.49 28.91 13.51 28.72 13.61 28.54C13.92 27.73 14.13 26.91 14.44 26.14C14.43 26.1 14.43 26.06 14.43 26.03C14.43 25.48 14.85 24.56 15.28 23.63C15.71 22.66 16.16 21.69 16.16 21.1C16.16 20.63 15.89 20.41 15.13 20.6C14.97 20.71 14.74 20.78 14.55 20.82C11.69 22.04 11.93 21.86 10.89 24.44C10.82 24.81 10.7 25.15 10.59 25.52C10.53 25.67 10.55 25.81 10.46 26C9.88 27.22 9.66 28.44 8.78 29.69C8.7 29.73 8.69 29.77 8.65 29.84C8.2 30.32 8.04 30.53 7.83 30.61C7.67 30.67 7.49 30.66 7.14 30.64C7.11 30.64 7.07 30.64 7.03 30.63C6.98 30.63 6.93 30.62 6.88 30.61C6.79 30.6 6.7 30.58 6.62 30.63C6.2 30.7 6 30.47 6 30.21C6 29.84 6.04 29.47 6.16 29.06C6.69 27.35 7.37 25.58 8.09 23.84C8.26 23.51 8.33 23.28 8.33 23.12C8.33 22.85 8.12 22.78 7.89 22.7C7.58 22.59 7.23 22.48 7.23 21.88C7.23 21.86 7.23 21.84 7.23 21.82C7.23 21.78 7.23 21.74 7.23 21.7C7.22 21.62 7.21 21.54 7.21 21.46C7.21 21.34 7.23 21.22 7.28 21.11C7.44 20.67 7.48 20.26 7.64 19.85C7.7 19.69 7.74 19.54 7.74 19.43C7.74 19.34 7.72 19.27 7.68 19.22C7.99 18.71 8.27 18.23 8.59 17.68C8.95 17.84 9.35 17.76 9.83 17.66C10.02 17.62 10.22 17.58 10.44 17.55C10.93 17.45 11.49 16.79 11.62 16.34C12.24 14.79 12.82 13.94 13.7 12.4C14.26 11.4 15.01 10.37 15.69 9.34C15.87 9.08 16.06 9.01 16.32 9.05C16.61 9.09 16.83 9.13 17.12 9.17C17.35 9.25 17.44 9.36 17.44 9.52C17.44 9.61 17.4 9.72 17.35 9.85C17.06 10.44 16.7 10.95 16.49 11.47C16.2 12.06 15.92 12.58 15.64 13.13C14.87 14.17 14.54 14.88 14.54 15.34C14.54 16.4 16.29 16.1 18.33 15.4C18.42 15.22 18.54 15.15 18.6 15C19.05 13.93 19.42 13.3 19.99 12.19C20.1 11.9 20.37 11.53 20.4 11.23C20.45 10.75 20.83 10.35 21.11 9.9C21.29 9.61 21.44 9.31 21.52 8.94C21.54 8.68 21.77 8.31 21.92 8.02C22.36 7.36 22.85 6.69 23.3 6C23.82 6 24.34 6.01 24.83 6.02C25.61 6.03 26.3 6.23 26.86 6.57C27.25 6.8 27.49 7.11 27.49 7.54C27.49 7.69 27.46 7.85 27.4 8.03C27.16 8.47 27.08 8.92 26.73 9.32C25.83 10.72 25.15 12.16 24.5 13.57C24.38 13.82 24.33 14.03 24.33 14.19C24.33 14.96 25.62 14.68 26.47 14.5C26.54 14.48 26.61 14.47 26.68 14.45C26.87 14.42 27.1 14.39 27.15 14.61C26.43 14.71 25.62 14.88 24.97 15.02C24.59 15.09 24.32 15.2 24.01 15.34C23.57 15.56 23.34 15.93 23.18 16.37C23.37 16.37 23.66 16.42 23.89 16.42C24 16.42 24.19 16.39 24.31 16.31C24.44 16.31 24.57 16.29 24.7 16.28C25.02 16.24 25.34 16.2 25.66 16.26C25.84 16.3 26.25 16.27 26.52 16.2C26.82 16.17 27.08 16.17 27.42 16.18L27.42 16.18C27.33 15.99 27.23 15.84 27.18 15.65C27.18 15.64 27.18 15.63 27.18 15.62C27.18 15.5 27.24 15.37 27.31 15.2C27.34 15.13 27.38 15.04 27.41 14.95C27.48 14.95 27.59 14.95 27.67 14.95C27.71 14.92 27.71 14.92 27.75 14.88C27.66 14.73 27.49 14.58 27.43 14.43C27.91 14.61 28.27 14.94 28.38 15.43C28.31 15.49 28.23 15.52 28.09 15.52C28.01 15.66 27.98 15.77 27.98 15.85C27.98 16.11 28.32 16.12 28.69 16.12L28.69 16.12C28.3 16.4 28.03 16.36 27.77 16.32C27.65 16.3 27.53 16.28 27.41 16.29C27.65 16.44 27.79 16.55 27.99 16.71C27.73 16.78 27.43 16.73 27.24 17.14C27.42 17.18 27.64 17.18 27.94 17.22C27.67 17.3 27.47 17.41 27.32 17.44C27.16 17.47 26.97 17.51 26.8 17.73C26.95 17.73 27.09 17.81 27.27 17.85C26.35 18.09 25.42 18.34 24.49 18.7C23.87 18.87 23.18 19.05 22.52 19.26C21.98 19.4 21.65 19.73 21.45 20.18C21.08 20.84 20.89 21.51 20.7 22.17C20.54 22.66 20.41 23.14 20.17 23.62C19.81 24.43 19.69 25.25 19.38 26.02C19.14 26.76 18.91 27.5 18.6 28.24C18.59 28.32 18.48 28.39 18.39 28.5C18.38 28.53 18.37 28.57 18.35 28.6C18.33 28.64 18.32 28.67 18.32 28.7C18.32 28.71 18.32 28.72 18.33 28.72C18.36 28.82 18.37 28.92 18.37 29.03C18.37 29.39 18.21 29.78 18.06 30.15C18.02 30.24 17.98 30.34 17.95 30.43C17.93 30.54 17.89 30.65 17.88 30.73C17.88 30.76 17.88 30.8 17.88 30.83C17.88 31.21 17.69 31.56 17.5 31.9C17.44 32 17.39 32.1 17.34 32.2C17.28 32.43 16.92 32.64 16.66 32.9C16.48 32.9 16.29 32.93 16.17 32.97L16.17 32.97C16.06 32.97 15.95 32.96 15.87 33C15.33 33.44 14.79 33.32 14.25 33.76C14.15 33.81 14.13 33.76 14.11 33.71C14.09 33.67 14.08 33.63 14 33.68C13.96 33.72 13.91 33.76 13.88 33.8C13.82 33.86 13.78 33.9 13.75 33.9C13.6 33.9 13.54 33.82 13.39 33.78C13.31 33.85 13.14 34 13.06 34.07C12.55 34.29 12.52 34.25 12.41 33.91ZM72.85 24.28C72.75 24.49 72.66 24.66 72.62 24.71C72.6 24.77 72.57 24.83 72.54 24.88C72.48 25.19 72.45 25.48 72.45 25.76C72.45 26.18 72.52 26.58 72.67 26.95C72.73 27.1 72.83 27.21 72.93 27.36C72.99 27.44 73.06 27.47 73.17 27.51L73.17 27.52C73.17 27.53 73.18 27.53 73.2 27.52C73.22 27.52 73.25 27.51 73.28 27.51C73.19 27.33 73.09 27.18 73.04 26.99C72.95 26.77 72.98 26.54 72.89 26.36C72.85 26.35 72.81 26.39 72.81 26.39C72.83 26.5 72.86 26.58 72.89 26.69C72.89 26.7 72.89 26.7 72.89 26.71C72.89 26.74 72.9 26.77 72.91 26.81C72.92 26.84 72.93 26.87 72.93 26.9C72.93 26.94 72.92 26.98 72.89 27.02C72.87 27.01 72.86 27 72.85 26.99C72.83 26.98 72.82 26.97 72.82 26.96L72.82 26.95C72.68 26.58 72.66 26.09 72.64 25.61C72.63 25.6 72.62 25.59 72.62 25.58C72.62 25.56 72.63 25.55 72.64 25.53C72.64 25.52 72.65 25.51 72.65 25.5C72.7 25.08 72.74 24.69 72.85 24.28ZM72.35 25.26C72.14 25.67 71.92 26.08 71.72 26.49C71.31 27.15 70.9 27.74 70.5 28.37C70.32 28.62 68.32 30.82 68.12 30.97C67.6 31.3 66.67 32.25 66.19 32.54C65.87 32.72 64.7 33.11 64.44 33.15C63.95 33.18 63.43 33.2 62.99 33.09C62.22 32.96 61.2 31.79 60.91 31.05C60.76 30.71 60.57 30.41 60.5 30.04C60.43 29.67 60.39 29.13 60.39 28.65C60.39 28.5 60.4 28.35 60.4 28.21C60.55 26.87 60.72 26.03 60.95 25.27C60.8 25.38 60.67 25.5 60.54 25.61C60.26 25.83 59.97 26.05 59.69 26.27C59.65 26.3 59.56 26.38 59.52 26.41C59.09 26.63 58.67 26.99 58.23 27.28C58.1 27.4 57.94 27.5 57.78 27.61C56.98 28.16 55.86 28.14 55.75 29.14C55.77 29.39 55.78 29.54 55.78 29.67C55.78 29.71 55.78 29.75 55.78 29.78C55.76 29.97 55.68 30.14 55.5 30.63C55.51 30.64 55.51 30.66 55.51 30.67C55.51 30.71 55.5 30.74 55.49 30.78C55.48 30.81 55.47 30.85 55.47 30.88C55.47 30.9 55.47 30.91 55.47 30.93C55.42 30.99 55.41 31.03 55.41 31.05C55.41 31.07 55.42 31.07 55.42 31.07C55.24 31.29 55.27 31.7 55.17 31.92C55.13 32 55.04 32.07 54.96 32.11C54.92 32.14 54.89 32.14 54.84 32.18C54.67 32.4 54.46 32.62 54.32 32.88C54.09 33.29 52.96 34.31 52.63 34.6C52.5 34.75 52.42 34.86 52.29 34.97C52.12 35.19 51.77 35.3 51.54 35.4C51.49 35.44 51.46 35.44 51.45 35.48C51.2 35.73 50.93 35.84 50.7 35.87C50.62 35.91 50.62 35.95 50.54 35.98C50.8 35.65 51.05 35.4 51.31 35.1C51.16 35.1 51.16 35.1 50.8 35.32L50.8 35.32L50.81 35.21C50.74 35.17 50.74 35.17 50.71 35.09C50.63 35.17 50.52 35.16 50.47 35.28C50.26 35.42 50.07 35.46 49.84 35.53C49.76 35.56 49.76 35.56 49.59 35.49C49.63 35.41 49.63 35.37 49.68 35.3C49.62 35.3 49.58 35.32 49.53 35.34C49.48 35.35 49.43 35.37 49.38 35.37C49.33 35.44 49.25 35.48 49.18 35.48C48.86 35.66 48.72 35.59 48.6 35.29C48.55 35.06 48.54 34.84 48.41 34.69C48.22 34.39 48.22 34.01 48.19 33.6C48.21 33.46 48.28 33.2 48.37 33.01C48.54 32.53 48.81 32.13 49.15 31.68C49.85 30.84 50.56 30.11 51.34 29.49C52.33 28.68 52.62 28.23 52.62 27.73C52.62 27.47 52.54 27.19 52.43 26.83C52.42 26.79 52.41 26.75 52.4 26.71C52.27 25.85 51.97 25.22 51.67 24.54C51.65 24.39 51.55 24.28 51.53 24.13C51.5 24.08 51.46 23.99 51.43 23.88C51.25 24.14 50.98 24.48 50.92 24.53C49.26 25.44 48.44 25.42 47.27 25.56C46.31 25.76 46.18 26.25 45.76 26.98L45.58 27.28C45.42 27.72 45.12 28.05 44.9 28.38C44.81 28.46 44.73 28.57 44.65 28.6L44.23 29.04C44.05 29.3 43.79 29.6 43.51 29.78L43.21 30.07L42.81 30.4C42.69 30.43 42.58 30.43 42.47 30.39C42.37 30.32 42.23 30.2 42.12 30.16C42.11 30.12 42.11 30.07 42.11 30.02C42.11 29.96 42.12 29.89 42.12 29.83C42.09 29.49 42.01 29.19 41.68 29.15C41.54 29.08 41.44 28.93 41.34 28.81C41.22 28.59 41.11 28.51 40.94 28.4C40.79 28.29 40.71 28.09 40.71 27.85C40.71 27.61 40.79 27.34 40.97 27.1C41.16 26.76 41.37 26.58 41.61 26.44C41.85 26.25 42.13 26.11 42.4 26C42.88 25.71 43.29 25.72 43.8 25.5C44.08 25.36 44.29 25.1 44.49 24.7C44.86 23.73 45.31 22.33 45.54 21.33L45.68 20.06C45.68 20.03 45.69 19.99 45.69 19.96C45.69 19.92 45.68 19.88 45.67 19.84C45.65 19.65 45.47 19.58 45.35 19.72C45.27 19.76 45.23 19.8 45.18 19.91C44.87 20.31 44.56 20.71 44.33 21.16C43.65 22.23 43 23.37 42.32 24.4C41.82 25.17 41.37 25.87 40.94 26.69C40.24 28.01 38.82 29.33 38.17 30.77C38.03 31.03 37.93 31.29 37.69 31.44C37.49 31.51 37.39 31.8 37.36 32.03C37.33 32.29 37.26 32.58 37.16 32.8C37.07 32.95 36.98 33.1 36.9 33.17C36.64 33.43 36.55 33.61 36.42 33.8C35.94 34.72 35.54 35.64 35.35 36.64C35.26 37.09 35.21 37.54 35.05 37.98C34.98 38.31 34.8 38.57 34.53 38.68C34.33 38.79 34.16 38.93 34.02 39.23C34 39.24 33.99 39.26 33.97 39.28C33.91 39.33 33.84 39.41 33.81 39.41C33.74 39.41 33.68 39.52 33.63 39.63C33.6 39.68 33.57 39.74 33.54 39.78L33.51 39.78C32.9 39.88 32.58 39.43 32.43 38.72C32.34 38.29 32.31 37.84 32.31 37.39C32.31 37.09 32.33 36.78 32.35 36.49C32.47 34.7 32.77 33 33.2 31.22C33.35 30.51 33.58 29.77 33.77 29.11C34.05 27.96 34.44 26.81 34.86 25.74C35.02 25.3 35.18 24.87 35.34 24.44C34.67 25.62 33.98 26.85 32.99 27.38C32.57 27.86 29.78 30.05 28.22 29.39C27.85 29.51 27.53 29.31 27.2 29.09C27.04 28.99 26.88 28.89 26.71 28.81C26.36 28.66 26.02 28.36 25.72 27.98C25.61 27.57 25.51 27.14 25.51 26.72C25.51 26.64 25.51 26.57 25.52 26.49C25.5 26.4 25.49 26.3 25.49 26.2C25.49 26.06 25.51 25.93 25.52 25.82C25.68 25.37 25.7 24.52 25.88 24.23C25.94 24.04 26.04 23.85 26.06 23.63C26.14 23.6 26.09 23.41 26.35 23.38C26.39 23.38 26.44 23.23 26.49 23.19C26.7 22.94 26.76 22.71 26.98 22.46C26.98 22.46 26.47 22.91 26.47 22.79C26.47 22.75 26.52 22.66 26.64 22.49C27.02 21.75 27.78 20.94 28.06 20.43C28.07 20.35 28.16 20.24 28.16 20.24C28.18 20.21 28.2 20.18 28.22 20.15C28.31 20.01 28.39 19.88 28.39 19.72C28.39 19.68 28.39 19.65 28.38 19.61C28.38 19.59 28.38 19.57 28.38 19.55C28.38 19.42 28.43 19.28 28.55 19.1C28.56 19.1 28.57 19.11 28.58 19.11C28.63 19.14 28.67 19.17 28.77 19.14L28.81 19.1C28.94 18.95 29.02 18.92 29.14 18.84C29.29 18.82 29.51 18.72 29.75 18.61C30.19 18.42 30.69 18.2 30.91 18.35C31 18.5 31.36 18.69 31.49 18.84C31.55 18.93 31.59 19.04 31.59 19.18C31.59 19.31 31.55 19.47 31.47 19.66C31.19 20.14 30.88 20.58 30.52 21.17C30.42 21.39 30.32 21.58 30.27 21.72C30.08 22.06 29.88 22.5 29.66 22.83C29.64 22.88 29.63 22.91 29.63 22.92C29.63 22.95 29.73 22.79 29.85 22.62C30.01 22.39 30.19 22.12 30.19 22.19C30.19 22.2 30.18 22.22 30.17 22.24C30.16 22.35 30.07 22.47 30.03 22.54C29.65 23.28 29.66 23.13 29.55 23.8C29.51 24.17 29.15 26.06 29.15 26.4C29.16 26.66 29.29 26.81 29.38 26.96C29.53 27.03 29.69 27.18 29.91 27.26C30.05 27.39 30.21 27.36 30.39 27.33C30.43 27.32 30.46 27.31 30.5 27.31C33.72 26.24 32.65 25.81 34.65 23.95C35.04 23.47 35.5 23.03 35.75 22.44C35.75 22.4 35.75 22.4 35.89 22.22C35.91 22.27 35.91 22.33 35.91 22.39C35.91 22.49 35.89 22.6 35.87 22.7C35.85 22.79 35.83 22.88 35.83 22.95C35.83 23.01 35.84 23.06 35.86 23.1C36.15 22.38 36.44 21.67 36.74 20.97C36.89 20.6 37.08 20.27 37.24 19.82C37.81 18.71 38.32 17.53 38.89 16.39C39.14 15.83 39.51 15.21 39.83 14.65C40.04 14.51 40.22 14.51 40.39 14.66L41.22 15.23L41.26 15.27C41.73 15.93 41.97 16.73 41.97 17.8C41.97 17.83 41.97 17.86 41.97 17.89C41.97 17.91 41.97 17.94 41.97 17.97C41.97 18.5 41.86 19.1 41.65 19.7C41.33 20.59 40.96 21.55 40.52 22.48C40.23 23.07 39.92 23.81 39.63 24.47C39.42 24.98 39.34 25.35 39.34 25.61C39.34 26.4 40.1 26.15 40.35 25.67C40.49 25.38 41.14 24.64 41.29 24.27L42.8 21.77C43.04 21.29 43.27 20.96 43.61 20.59C43.9 20.3 44.2 19.93 44.54 19.63C44.78 19.42 45.14 19.24 45.4 19.24L46.03 19.25C46.35 19.19 46.6 19.44 46.85 19.68C46.87 19.7 46.89 19.73 46.91 19.75C47.08 19.86 47.2 20.16 47.2 20.46C47.2 20.56 47.21 20.66 47.21 20.76C47.22 20.88 47.23 21 47.23 21.12C47.23 21.2 47.22 21.28 47.22 21.35L47.24 22.43L47.13 23.8C47.12 23.88 47.12 23.94 47.12 24C47.12 24.52 47.34 24.47 48.01 24.34C48.23 24.3 48.49 24.25 48.8 24.2C49.25 24.14 49.95 23.96 50.69 23.3C50.9 23.12 51.11 23.17 51.28 23.28C51.09 22.38 50.91 21.08 50.91 20.46C50.91 20.38 50.92 20.31 50.92 20.25C51 20.18 50.98 20.11 51.07 19.96C51.07 19.95 51.07 19.93 51.07 19.92C51.07 19.71 51.16 19.5 51.33 19.29C51.33 19.28 51.34 19.26 51.35 19.24C51.39 19.16 51.45 19.04 51.45 18.91C51.45 18.87 51.44 18.82 51.42 18.77C51.56 18.59 51.62 18.33 51.76 18.15C51.85 17.96 51.94 17.85 52.04 17.63C52.12 17.52 52.17 17.41 52.3 17.3C52.43 17.08 52.57 16.86 52.71 16.64C52.89 16.34 53.14 16.12 53.32 15.86C53.36 15.79 53.4 15.79 53.48 15.76C53.6 15.68 53.64 15.64 53.73 15.5C53.86 15.35 53.94 15.28 54.01 15.35C54.26 15.47 54.43 15.58 54.63 15.81C54.63 15.81 54.67 15.81 54.7 15.85C55.01 16 55.44 17.33 55.44 17.84C55.44 17.85 55.44 17.86 55.44 17.87L55.44 17.87C55.44 17.91 55.43 17.96 55.43 18C55.43 18.06 55.44 18.12 55.48 18.17C55.46 18.39 55.43 18.61 55.33 18.83C55.23 19.13 55.11 19.5 54.93 19.79C54.84 19.94 54.79 20.05 54.63 20.09C54.51 20.16 54.39 20.31 54.3 20.46C54.28 20.49 54.25 20.53 54.22 20.56C54.16 20.64 54.1 20.72 54.1 20.84C54.1 20.84 54.1 20.85 54.1 20.86C54.1 20.86 54.09 20.94 54.05 20.97C53.92 21.16 53.78 21.38 53.69 21.56C53.55 21.83 53.47 22.27 53.47 22.6C53.47 22.71 53.48 22.82 53.5 22.9C53.55 23.08 53.72 23.27 53.82 23.39C54.25 23.8 54.51 25.22 54.87 25.63C55.04 25.78 54.99 26.19 55.13 26.35C55.29 26.91 55.97 26.62 56.69 26.3C57.02 26.16 57.36 26.01 57.67 25.94C58.28 25.54 58.88 25.14 59.49 24.7C59.93 24.41 60.38 24.08 60.79 23.75C61.08 23.53 61.33 23.28 61.58 23.02C61.72 22.9 61.87 22.76 62.01 22.61C62.13 22.32 62.26 22.01 62.41 21.66C62.51 21.4 62.57 21.18 62.68 20.92C62.74 20.66 62.88 20.4 62.98 20.18C63.14 19.77 63.3 19.36 63.45 18.99C63.53 18.76 63.68 18.49 63.83 18.2C64.06 17.76 64.31 17.29 64.31 16.97C64.31 16.78 64.22 16.64 63.98 16.59C63.73 16.54 63.5 16.58 63.3 16.39C63.09 16.24 62.88 16.12 62.67 15.97C62.61 15.89 62.5 15.82 62.49 15.63C62.49 15.63 62.5 15.63 62.51 15.62C62.58 15.59 62.65 15.56 62.68 15.56C63.22 15.46 63.71 15.35 64.25 15.25C64.59 15.18 64.97 15.15 65.34 15.12C65.5 15.08 65.65 15.01 65.75 14.83C65.89 14.53 66.11 14.27 66.22 13.94C66.67 13.24 67.02 12.5 67.5 11.84C67.94 11.25 68.37 10.74 68.91 10.3C68.99 10.19 69.12 10.08 69.2 10C69.36 9.9 69.52 9.82 69.7 9.86C69.83 9.91 69.97 9.89 70.12 9.87C70.21 9.85 70.31 9.84 70.41 9.84C70.45 9.84 70.45 9.84 70.49 9.8C71.02 9.7 71.19 9.92 71.29 10.33C71.39 10.6 71.44 10.87 71.44 11.16C71.44 11.28 71.43 11.4 71.42 11.53C71.41 11.61 71.4 11.69 71.4 11.76C71.4 11.88 71.41 12 71.42 12.11L71.42 12.12C71.43 12.16 71.43 12.2 71.43 12.25C71.43 12.37 71.41 12.51 71.37 12.64C71.31 12.83 71.25 13.01 71.19 13.24C71.08 13.53 70.97 13.83 70.86 14.12C70.85 14.24 70.84 14.31 70.79 14.42C70.9 14.5 71.01 14.5 71.16 14.5C71.61 14.47 72.1 14.44 72.55 14.41C73.18 14.42 73.85 14.43 74.49 14.44C74.71 14.44 74.92 14.52 75.18 14.56C75.09 14.67 75.05 14.74 75.01 14.78C74.92 14.86 74.81 14.93 74.73 14.96C74.45 15.07 74.14 15.21 73.86 15.32C73.86 15.36 73.82 15.36 73.82 15.36C73.66 15.37 73.49 15.4 73.32 15.44C73.05 15.49 72.77 15.55 72.5 15.52C72.24 15.52 71.97 15.55 71.7 15.62C71.55 15.7 71.36 15.69 71.21 15.73C70.9 15.76 70.64 15.79 70.34 15.83C70.18 15.86 70.1 15.97 70.01 16.12C69.96 16.15 69.96 16.19 69.92 16.23C69.33 17.49 68.6 18.66 67.98 19.88C67.89 20.03 67.8 20.18 67.75 20.29C67.52 20.66 67.33 20.99 67.18 21.4C67.03 21.73 66.8 22.06 66.58 22.35C66.4 22.61 66.4 22.95 66.19 23.2C65.67 24.12 64.87 26.94 64.79 28.35C64.79 28.43 64.78 28.51 64.78 28.59C64.78 29.1 64.86 29.58 64.97 30.07C65.02 30.25 65.16 30.37 65.26 30.52C65.29 30.52 65.33 30.56 65.4 30.56C65.44 30.56 65.48 30.56 65.53 30.56C65.88 30.57 66.44 30.58 66.76 30.39C67 30.25 68.22 29.37 68.46 29.19C69.09 28.64 70.51 27.29 70.96 26.55C71.37 25.92 71.65 25.11 72.05 24.52C72.24 24.15 72.7 23.34 72.94 22.93C72.94 22.94 72.95 22.94 72.96 22.94C73.12 22.57 73.3 22.21 73.5 21.86C73.64 21.64 73.64 21.64 73.64 21.31C73.44 21.42 73.32 21.49 73.22 21.71C73.07 22.04 72.89 22.34 72.67 22.67C72.71 22.34 72.88 22.11 73.02 21.86C73.39 21.19 73.8 20.57 74.28 19.98C74.76 19.35 75.27 18.8 75.85 18.29C76.43 17.74 77.04 17.27 77.68 16.91C77.84 16.83 77.95 16.8 78.07 16.73C78.27 16.65 78.46 16.62 78.55 16.81C78.65 16.92 78.8 16.89 78.87 16.96C78.97 17.04 78.99 17.19 79.06 17.26C79.41 17.45 80.78 17.85 81.09 18.07C81.2 18.15 81.25 18.3 81.31 18.45C81.46 18.79 81.57 19.16 81.8 19.39C81.87 19.46 81.89 19.61 81.92 19.72C81.92 19.83 81.93 19.94 81.93 20.05C81.93 20.38 81.89 20.7 81.77 21.06C81.63 21.58 81.35 22.06 81.05 22.5C80.87 22.76 80.69 22.98 80.55 23.27C80.44 23.53 80.27 23.75 80.09 24.01C79.91 24.31 79.63 24.49 79.36 24.56C79.12 24.67 78.86 24.7 78.64 24.66C78.53 24.62 78.41 24.66 78.36 24.51C78.36 24.5 78.36 24.5 78.36 24.5C78.36 24.47 78.32 24.47 78.32 24.47C78.13 24.49 78 24.35 77.87 24.23C77.8 24.16 77.74 24.09 77.66 24.05C77.63 24.01 77.61 23.92 77.61 23.87C77.61 23.87 77.61 23.86 77.61 23.86C77.64 23.8 77.66 23.76 77.66 23.72C77.66 23.68 77.64 23.64 77.63 23.6C77.62 23.58 77.61 23.55 77.61 23.53C77.49 23.23 77.38 22.89 77.23 22.59C77.2 22.48 77.1 22.44 76.97 22.55C76.91 22.73 76.75 22.88 76.72 23.1C76.71 23.18 76.63 23.25 76.55 23.29C76.51 23.32 76.43 23.36 76.42 23.47C76.37 23.62 76.33 23.66 76.21 23.69C76.13 23.73 76.13 23.76 76.07 23.99C76.14 23.99 76.18 23.99 76.21 24.03L76.2 24.06C76.13 24.06 76.06 24.06 75.94 24.06C75.99 23.95 76.01 23.84 76.02 23.76L75.94 23.76C75.87 24.02 75.81 24.28 75.74 24.54C75.81 24.58 75.84 24.62 75.88 24.62C75.88 24.65 75.88 24.68 75.88 24.71C75.88 24.93 75.86 25.13 75.84 25.36C75.83 25.41 75.83 25.46 75.83 25.51C75.83 25.71 75.87 25.88 75.91 26.03C76.01 26.18 76.21 27 76.31 27.15C76.77 27.68 77.33 28.36 77.92 28.4C78.1 28.45 79.2 28.28 79.39 28.24C80.32 27.99 81.23 27.52 82.12 26.91C82.81 26.43 83.46 25.89 84.15 25.37C84.2 25.34 84.24 25.3 84.28 25.26C84.53 25.01 84.78 24.79 85.03 24.53C85.49 24.13 85.91 23.73 86.3 23.25C86.34 23.18 86.39 23.12 86.44 23.06C86.49 22.81 86.56 22.58 86.77 22.07C87.19 20.62 87.02 20.84 87.7 19.4C87.77 19.14 87.94 18.96 88.04 18.7C88.38 18.04 88.67 17.45 89.03 16.86C89.23 16.38 89.39 16.3 89.75 16.38C90.02 16.39 90.34 16.46 90.67 16.55C90.89 16.59 91.1 16.66 91.37 16.93C91.58 17.41 91.91 17.75 92.24 18.2C92.37 18.51 92.45 18.77 92.45 19.05C92.45 19.32 92.38 19.61 92.23 19.96C91.96 20.69 91.95 20.14 91.67 20.91C91.01 22.47 89.98 23.68 89.41 25.08C89.29 25.37 89.24 25.57 89.24 25.69C89.24 26.32 90.6 25.03 90.78 24.51C91 23.95 92.59 21.34 92.9 20.9C93.17 20.56 93.43 20.23 93.66 19.86C93.91 19.57 94.17 19.24 94.36 18.94C94.53 18.69 94.77 18.54 95 18.51C95.14 18.51 95.26 18.5 95.39 18.5C95.5 18.49 95.61 18.48 95.71 18.48C96.16 18.49 96.38 18.83 96.55 19.31C96.55 19.35 96.54 19.39 96.54 19.46C96.56 19.95 96.61 20.47 96.63 20.99C96.63 21.04 96.63 21.08 96.63 21.13C96.63 21.45 96.59 21.78 96.54 22.11C96.53 22.23 96.51 22.35 96.5 22.47C96.46 22.81 96.46 23.14 96.38 23.48C96.49 23.55 96.51 23.64 96.52 23.68C96.53 23.7 96.53 23.72 96.55 23.7C96.59 23.67 96.67 23.68 96.75 23.69C96.84 23.7 96.92 23.71 96.96 23.67C97.01 23.6 97.08 23.56 97.13 23.49C97.29 23.38 97.45 23.27 97.62 23.09C97.75 22.9 97.87 22.9 98 23.09C97.98 23.21 97.93 23.31 97.81 23.39C97.77 23.42 97.73 23.5 97.68 23.57C97.63 23.68 97.54 23.79 97.43 23.83C97.39 23.87 97.34 23.9 97.3 23.94C97.26 23.97 97.18 24.01 97.18 24.05C97.14 24.08 97.1 24.08 97.06 24.12C96.89 24.27 96.78 24.3 96.63 24.3C96.59 24.3 96.44 24.33 96.28 24.44C96.16 24.51 96.04 24.51 95.98 24.44C95.73 24.29 95.48 24.24 95.23 24.13C94.8 24.01 94.5 23.6 94.38 23.07C94.32 22.84 94.3 22.59 94.3 22.34C94.3 21.88 94.38 21.41 94.5 20.96C94.61 20.62 94.65 20.33 94.72 20.03C94.78 19.81 94.84 19.59 94.91 19.36C94.97 19.25 95 19.17 95 19.07C95 19.03 94.99 18.99 94.99 18.95C94.98 18.95 94.97 18.95 94.96 18.95C94.92 18.94 94.88 18.93 94.87 18.99C94.83 19.03 94.75 19.1 94.7 19.17C94.52 19.47 94.3 19.76 94.08 20.09C93.94 20.28 93.84 20.5 93.78 20.76C93.78 20.77 93.78 20.78 93.78 20.79C93.78 20.88 93.73 20.96 93.69 21.03C93.66 21.06 93.64 21.09 93.63 21.13C93.22 21.76 92.85 22.35 92.55 23.05C92.31 23.56 92 24.01 91.71 24.52C91.29 25.3 90.8 26 90.45 26.81C90.35 27.07 90.16 27.36 90.02 27.66C89.92 27.88 88.79 29.65 88.54 29.83C88.54 29.9 88.42 29.94 88.34 30.01C87.82 30.64 87.3 30.59 86.72 30.43C86.64 30.51 86.58 30.43 86.51 30.36L86.51 30.36C85.93 30.2 85.69 29.64 85.63 28.89C85.62 28.77 85.62 28.65 85.62 28.52C85.62 28.01 85.67 27.48 85.73 26.97L85.73 26.96C85.88 26 86.02 25.03 86.21 24.07C86.22 24.03 86.23 24 86.23 23.97C86.21 23.99 86.19 24.01 86.17 24.03C85.92 24.29 85.71 24.51 85.53 24.8C85.4 24.95 85.23 25.09 85.1 25.24C85.06 25.28 85.02 25.35 84.93 25.46C85.05 25.43 85.12 25.39 85.24 25.35C85.18 25.57 84.99 25.61 84.93 25.8C84.96 25.83 84.96 25.87 85.03 25.91C84.9 26.09 84.77 26.2 84.61 26.35C84.36 26.53 84.11 26.75 83.9 26.97C83.53 27.34 83.12 27.63 82.71 27.92C82.51 28.07 82.34 28.21 82.15 28.32C81.98 28.43 81.83 28.5 81.66 28.61C81.43 28.72 81.19 28.83 80.95 28.97C80.55 29.19 80.13 29.37 79.71 29.44C79.59 29.47 79.48 29.51 79.36 29.54C78.9 29.68 78.44 29.75 77.99 29.78C77.46 29.85 75.31 29.41 74.84 29.21C73.6 28.67 73.41 28.04 72.87 27.51C72.67 27.32 72.52 27.02 72.44 26.72C72.36 26.42 72.33 26.11 72.33 25.79C72.33 25.61 72.34 25.44 72.35 25.26ZM69.82 13.1C69.88 12.95 69.93 12.77 69.99 12.58C70.06 12.29 70.17 11.99 70.24 11.69C70.32 11.36 70.32 11.03 70.32 10.69C70.3 10.54 70.19 10.5 70.11 10.58C69.94 10.69 69.82 10.76 69.73 10.94C69.55 11.24 69.36 11.57 69.25 11.9C69.2 12.01 69.11 12.12 69.06 12.24C68.97 12.38 68.88 12.53 68.78 12.72C68.67 13.08 68.55 13.49 68.39 13.9C68.36 14 68.35 14.1 68.35 14.18C68.35 14.87 69.2 14.84 69.47 14.25C69.59 13.88 69.7 13.51 69.82 13.1ZM32.65 15.14C32.56 15.25 32.48 15.32 32.43 15.47C32.42 15.51 32.41 15.58 32.33 15.66C32.21 15.77 32.08 15.91 31.91 16.09C31.82 16.21 31.51 16.35 31.32 16.38C31.25 16.35 31.13 16.42 31.04 16.49C30.8 16.64 30.66 16.6 30.52 16.52C30.41 16.44 30.34 16.44 30.23 16.44C30.08 16.44 29.97 16.44 29.82 16.4C29.86 16.36 29.91 16.29 29.95 16.25C29.96 16.14 30.05 16.03 30.1 15.88C30.2 15.7 30.29 15.59 30.42 15.4C30.43 15.33 30.55 15.26 30.55 15.22C30.58 15 30.78 14.81 30.92 14.59C31.01 14.48 31.09 14.37 31.18 14.26C31.26 14.19 31.35 14.12 31.42 14.12C31.5 14.08 31.57 14.08 31.61 14.12C31.61 14.12 31.61 14.13 31.61 14.13C31.61 14.19 31.68 14.19 31.75 14.16C31.77 14.15 31.79 14.14 31.8 14.14C31.85 14.11 31.88 14.09 31.91 14.12C32.05 14.2 32.23 14.24 32.37 14.28C32.62 14.4 32.79 14.58 32.91 14.84C32.78 14.95 32.73 15.07 32.65 15.14ZM28.39 15.48C28.39 15.46 28.39 15.44 28.38 15.43C28.39 15.42 28.39 15.42 28.4 15.41L28.39 15.48ZM68.19 17.36C68.4 16.95 68.55 16.59 68.55 16.36C68.55 16.07 68.29 16.02 67.54 16.45C67 17.67 66.75 18.52 66.29 19.67C65.97 20.5 65.85 20.94 65.85 21.11C65.85 21.57 66.75 20.09 67.25 19.09C67.59 18.39 67.78 18.02 68.19 17.36ZM14.5 16.95C14.27 16.98 14.08 17.05 14.05 17.27C14.09 17.28 14.13 17.28 14.16 17.29C14.21 17.29 14.25 17.3 14.27 17.28C14.9 17.03 15.41 16.77 16 16.56C16.26 16.53 16.48 16.53 16.73 16.53L16.73 16.53L16.74 16.53C16.75 16.5 16.83 16.42 16.84 16.39C16.53 16.42 16.26 16.53 16 16.56C15.5 16.7 15 16.8 14.5 16.95ZM17.34 17.58C16.97 17.54 16.55 17.65 16.04 17.79C15.77 17.9 15.5 17.97 15.2 17.96C14.94 17.96 14.71 18.03 14.47 18.21C15.4 18.19 16.35 18.05 17.5 17.77C17.44 17.7 17.4 17.66 17.34 17.58ZM14.9 17.7C14.67 17.73 14.44 17.8 14.2 17.91C14.42 17.99 14.68 17.95 14.9 17.7ZM9.99 17.92C9.53 18.02 9.4 18.17 9.16 18.65C9.34 18.65 9.56 18.73 9.78 18.73C10 18.78 10.03 18.89 10.08 19.07C9.73 19.22 9.39 19.21 9.05 19.58C9.51 19.51 9.85 19.44 10.24 19.34C10.52 18.82 10.76 18.34 11.05 17.75C10.63 17.85 10.36 17.89 9.99 17.92ZM17.23 18.18C17.18 18.17 17.13 18.16 17.08 18.14C16.88 18.09 16.68 18.03 16.28 18.35C16.43 18.33 16.55 18.33 16.66 18.33C16.86 18.34 17.02 18.34 17.23 18.18ZM78.1 21.12C78.02 21.23 77.89 21.37 77.8 21.52C77.71 21.64 77.67 21.75 77.67 21.84C77.67 21.94 77.72 22.02 77.81 22.08C77.91 22.15 78.05 22.23 78.11 22.34C78.31 22.6 78.61 22.57 78.91 22.54L78.91 22.54C79.18 22.47 79.4 22.22 79.58 21.96C79.91 21.33 80.07 21.22 80.36 20.59C80.53 20.28 80.6 20.05 80.6 19.89C80.6 19.34 79.75 19.6 79.28 19.94C78.84 20.23 78.48 20.71 78.1 21.12ZM73.08 24.01C72.85 24.53 72.81 25.03 72.81 25.52C72.81 25.59 72.81 25.66 72.81 25.72C72.81 25.72 72.81 25.73 72.81 25.73C72.81 25.75 72.82 25.75 72.84 25.77C72.85 25.77 72.86 25.78 72.88 25.8C72.96 25.39 73.04 25.02 73.12 24.65L73.12 24.65C73.16 24.47 73.21 24.31 73.21 24.15C73.21 24.06 73.19 23.98 73.16 23.91C73.12 23.94 73.08 23.98 73.08 24.01ZM42.44 26.67C42.2 26.78 42.03 27.04 41.98 27.48C41.99 27.67 42.09 27.82 42.2 27.82C42.28 27.75 42.39 27.75 42.48 27.68C42.67 27.57 42.88 27.42 43.01 27.24C43.39 26.8 43.6 26.33 43.6 26.27C43.6 26.26 43.59 26.27 43.56 26.32C43.13 26.5 42.8 26.42 42.44 26.67ZM50.2 32C49.97 32.07 49.72 32.29 49.58 32.55C49.44 32.77 49.31 32.92 49.15 33.02C48.99 33.17 48.82 33.32 48.73 33.5C48.66 33.72 48.64 33.91 48.55 34.09C48.5 34.19 48.48 34.28 48.48 34.35C48.48 34.44 48.51 34.52 48.57 34.58C48.7 34.77 48.83 34.92 48.96 35.1C49.06 35.18 49.21 35.22 49.37 35.08C49.53 34.96 49.66 34.85 49.86 34.71C50.02 34.56 50.19 34.38 50.36 34.23C50.73 33.98 51.02 33.68 51.29 33.24C51.38 33.17 51.42 33.06 51.47 32.98C51.69 32.69 51.88 32.36 52.03 32.03C52.25 31.7 52.25 31.32 52.45 30.95C52.48 30.96 52.49 30.88 52.49 30.84L52.49 30.84C52.5 30.79 52.5 30.75 52.5 30.71C52.5 29.95 51.52 30.9 50.91 31.48C50.79 31.6 50.68 31.71 50.6 31.78C50.47 31.89 50.35 31.96 50.2 32ZM30.39 43.33C30.3 43.33 30.22 43.36 30.16 43.41C30.1 43.46 30.06 43.54 30.06 43.63C30.06 43.73 30.09 43.81 30.15 43.87C30.21 43.93 30.28 43.97 30.37 44.01C30.47 44.04 30.57 44.07 30.68 44.1C30.79 44.13 30.91 44.16 31.02 44.2C31.13 44.24 31.23 44.29 31.32 44.35C31.42 44.42 31.49 44.5 31.55 44.61C31.61 44.72 31.63 44.86 31.63 45.01C31.63 45.28 31.52 45.51 31.31 45.71C31.09 45.9 30.8 46 30.44 46C30.09 46 29.8 45.91 29.58 45.74C29.36 45.56 29.25 45.32 29.25 45L30.07 45C30.09 45.25 30.22 45.38 30.46 45.38C30.57 45.38 30.66 45.35 30.72 45.29C30.79 45.23 30.82 45.16 30.82 45.07C30.82 44.97 30.79 44.9 30.73 44.84C30.68 44.79 30.6 44.74 30.51 44.71C30.42 44.67 30.32 44.64 30.2 44.61C30.09 44.58 29.98 44.55 29.87 44.51C29.75 44.46 29.65 44.41 29.56 44.35C29.47 44.29 29.39 44.21 29.34 44.1C29.28 43.99 29.25 43.86 29.25 43.7C29.25 43.41 29.36 43.17 29.58 42.99C29.8 42.81 30.08 42.72 30.42 42.72C30.77 42.72 31.04 42.8 31.25 42.95C31.46 43.11 31.57 43.36 31.58 43.69L30.74 43.69C30.73 43.58 30.69 43.49 30.63 43.43C30.57 43.36 30.49 43.33 30.39 43.33ZM53.45 43.33C53.35 43.33 53.27 43.36 53.21 43.41C53.15 43.46 53.12 43.54 53.12 43.63C53.12 43.73 53.15 43.81 53.2 43.87C53.26 43.93 53.34 43.97 53.43 44.01C53.52 44.04 53.62 44.07 53.74 44.1C53.85 44.13 53.96 44.16 54.07 44.2C54.18 44.24 54.29 44.29 54.38 44.35C54.47 44.42 54.54 44.5 54.6 44.61C54.66 44.72 54.69 44.86 54.69 45.01C54.69 45.28 54.58 45.51 54.36 45.71C54.14 45.9 53.85 46 53.5 46C53.14 46 52.85 45.91 52.63 45.74C52.41 45.56 52.31 45.32 52.31 45L53.13 45C53.15 45.25 53.28 45.38 53.52 45.38C53.63 45.38 53.72 45.35 53.78 45.29C53.84 45.23 53.87 45.16 53.87 45.07C53.87 44.97 53.84 44.9 53.79 44.84C53.73 44.79 53.66 44.74 53.56 44.71C53.47 44.67 53.37 44.64 53.26 44.61C53.14 44.58 53.03 44.55 52.92 44.51C52.81 44.46 52.71 44.41 52.61 44.35C52.52 44.29 52.45 44.21 52.39 44.1C52.33 43.99 52.31 43.86 52.31 43.7C52.31 43.41 52.42 43.17 52.63 42.99C52.85 42.81 53.14 42.72 53.48 42.72C53.82 42.72 54.1 42.8 54.31 42.95C54.52 43.11 54.63 43.36 54.64 43.69L53.8 43.69C53.79 43.58 53.75 43.49 53.69 43.43C53.62 43.36 53.55 43.33 53.45 43.33ZM76.78 45.53C76.47 45.22 76.31 44.83 76.31 44.35C76.31 43.88 76.47 43.49 76.78 43.18C77.1 42.87 77.48 42.72 77.94 42.72C78.39 42.72 78.78 42.87 79.09 43.18C79.4 43.49 79.56 43.88 79.56 44.35C79.56 44.83 79.4 45.22 79.09 45.53C78.78 45.84 78.39 46 77.94 46C77.48 46 77.1 45.84 76.78 45.53ZM38.12 45.53C37.81 45.22 37.65 44.83 37.65 44.35C37.65 43.88 37.81 43.49 38.12 43.18C38.44 42.87 38.82 42.72 39.28 42.72C39.63 42.72 39.94 42.81 40.22 43C40.49 43.19 40.68 43.45 40.79 43.79L39.87 43.79C39.75 43.55 39.56 43.44 39.29 43.44C39.03 43.44 38.82 43.52 38.67 43.69C38.51 43.85 38.44 44.08 38.44 44.35C38.44 44.63 38.51 44.86 38.67 45.03C38.82 45.19 39.02 45.27 39.28 45.27C39.46 45.27 39.61 45.23 39.73 45.14C39.84 45.04 39.92 44.92 39.96 44.76L39.07 44.76L39.07 44.17L40.79 44.17L40.79 44.76C40.73 45.06 40.58 45.33 40.32 45.58C40.19 45.7 40.04 45.8 39.86 45.88C39.68 45.95 39.48 45.99 39.28 45.99C38.82 45.99 38.44 45.84 38.12 45.53ZM26.58 42.76L26.58 43.35L25.44 43.35L25.44 44.04L26.45 44.04L26.45 44.63L25.44 44.63L25.44 45.37L26.58 45.37L26.58 45.96L24.66 45.96L24.66 42.76L26.58 42.76ZM45.43 42.76L46.2 42.76L46.2 45.96L45.43 45.96L44.13 43.94L44.13 45.96L43.36 45.96L43.36 42.76L44.13 42.76L45.43 44.77L45.43 42.76ZM62.17 44.67L62.17 42.77L62.95 42.77L62.95 44.67C62.95 44.87 62.99 45.01 63.09 45.12C63.18 45.22 63.32 45.27 63.5 45.27C63.68 45.27 63.82 45.22 63.91 45.12C64.01 45.01 64.06 44.87 64.06 44.67L64.06 42.77L64.83 42.77L64.83 44.67C64.83 44.96 64.77 45.2 64.63 45.4C64.5 45.61 64.34 45.76 64.14 45.85C63.94 45.95 63.72 46 63.48 46C63.12 46 62.81 45.88 62.55 45.65C62.3 45.42 62.17 45.09 62.17 44.67ZM20.37 42.77C20.88 42.77 21.29 42.91 21.62 43.21C21.94 43.5 22.1 43.89 22.1 44.36C22.1 44.83 21.94 45.22 21.62 45.52C21.29 45.81 20.88 45.96 20.37 45.96L19.25 45.96L19.25 42.77L20.37 42.77ZM34.31 45.96L34.31 42.77L35.09 42.77L35.09 45.96L34.31 45.96ZM57.15 43.36L57.15 42.77L59.66 42.77L59.66 43.36L58.79 43.36L58.79 45.96L58.02 45.96L58.02 43.36L57.15 43.36ZM68.68 42.77C69.18 42.77 69.6 42.91 69.93 43.21C70.25 43.5 70.41 43.89 70.41 44.36C70.41 44.83 70.25 45.22 69.93 45.52C69.6 45.81 69.18 45.96 68.68 45.96L67.56 45.96L67.56 42.77L68.68 42.77ZM72.97 45.96L72.97 42.77L73.75 42.77L73.75 45.96L72.97 45.96ZM20.03 45.37L20.37 45.37C20.66 45.37 20.9 45.28 21.07 45.1C21.23 44.92 21.32 44.67 21.32 44.36C21.32 44.06 21.23 43.81 21.07 43.63C20.9 43.45 20.66 43.36 20.37 43.36L20.03 43.36L20.03 45.37ZM68.33 45.37L68.68 45.37C68.97 45.37 69.21 45.28 69.37 45.1C69.54 44.92 69.63 44.67 69.63 44.36C69.63 44.06 69.54 43.81 69.37 43.63C69.21 43.45 68.97 43.36 68.68 43.36L68.33 43.36L68.33 45.37ZM78.54 45.03C78.7 44.86 78.77 44.63 78.77 44.35C78.77 44.08 78.7 43.85 78.54 43.69C78.39 43.52 78.19 43.44 77.93 43.44C77.68 43.44 77.48 43.52 77.32 43.69C77.17 43.85 77.09 44.08 77.09 44.35C77.09 44.63 77.17 44.86 77.32 45.03C77.48 45.19 77.68 45.27 77.93 45.27C78.19 45.27 78.39 45.19 78.54 45.03Z" fill="#FFFFFF" fill-opacity="1.000000" fill-rule="evenodd"/>
	</g>
</svg>
