<svg width="105.999969" height="36.999969" viewBox="0 0 106 37" fill="none" xmlns="http://www.w3.org/2000/svg" xmlns:xlink="http://www.w3.org/1999/xlink">
	<desc>
			Created with Pixso.
	</desc>
	<defs>
		<filter id="filter_1_3143_dd" x="0.000000" y="0.000000" width="105.999969" height="36.999969" filterUnits="userSpaceOnUse" color-interpolation-filters="sRGB">
			<feFlood flood-opacity="0" result="BackgroundImageFix"/>
			<feBlend mode="normal" in="SourceGraphic" in2="BackgroundImageFix" result="shape"/>
			<feGaussianBlur stdDeviation="2" result="effect_layerBlur_1"/>
		</filter>
	</defs>
	<g filter="url(#filter_1_3143_dd)">
		<path id="logo" d="M95.7 24.39L95.7 6L100 6L100 24.39L95.7 24.39ZM46.52 20.79L48.05 20.79L48.05 24.39L45.87 24.39C44.3 24.39 43.08 24.05 42.22 23.36C41.36 22.67 40.93 21.49 40.93 19.82L40.93 14.05L39.62 14.05L39.62 10.52L40.93 10.52L40.93 7.14L45.22 7.14L45.22 10.52L48.03 10.52L48.03 14.05L45.22 14.05L45.22 19.82C45.22 20.46 45.65 20.79 46.52 20.79ZM10.29 10.52L10.29 12.56C11.17 11.1 12.59 10.37 14.53 10.37C16.13 10.37 17.43 10.9 18.43 11.96C19.42 13.02 19.92 14.46 19.92 16.29L19.92 24.39L15.65 24.39L15.65 16.86C15.65 15.96 15.42 15.27 14.94 14.78C14.46 14.29 13.81 14.05 12.97 14.05C12.13 14.05 11.48 14.29 11 14.78C10.52 15.27 10.29 15.96 10.29 16.86L10.29 24.39L6 24.39L6 10.52L10.29 10.52ZM72.34 10.52L72.34 13.1C73.35 11.28 74.68 10.37 76.36 10.37L76.36 14.7L75.3 14.7C74.32 14.7 73.58 14.93 73.08 15.39C72.59 15.86 72.34 16.67 72.34 17.83L72.34 24.39L68.05 24.39L68.05 10.52L72.34 10.52ZM24.14 22.57C22.9 21.25 22.28 19.55 22.28 17.48C22.28 15.41 22.9 13.71 24.14 12.37C25.37 11.04 26.89 10.37 28.67 10.37C30.45 10.37 31.82 11.03 32.77 12.33L32.77 10.52L37.06 10.52L37.06 24.39L32.77 24.39L32.77 22.38C31.73 23.83 30.34 24.56 28.6 24.56C26.86 24.56 25.37 23.9 24.14 22.57ZM79.27 22.57C78.03 21.25 77.41 19.55 77.41 17.48C77.41 15.41 78.03 13.71 79.27 12.37C80.51 11.04 82.02 10.37 83.8 10.37C85.58 10.37 86.95 11.03 87.9 12.33L87.9 10.52L92.19 10.52L92.19 24.39L87.9 24.39L87.9 22.38C86.86 23.83 85.47 24.56 83.73 24.56C81.99 24.56 80.51 23.9 79.27 22.57ZM60.25 10.52L64.54 10.52L64.54 24.39L60.25 24.39L60.25 22.35C59.36 23.81 57.95 24.54 56.01 24.54C54.4 24.54 53.1 24.01 52.1 22.95C51.11 21.89 50.61 20.45 50.61 18.62L50.61 10.52L54.88 10.52L54.88 18.05C54.88 18.95 55.12 19.64 55.59 20.13C56.07 20.62 56.73 20.86 57.56 20.86C58.4 20.86 59.06 20.62 59.53 20.13C60.01 19.64 60.25 18.95 60.25 18.05L60.25 10.52ZM31.84 19.99C32.46 19.39 32.77 18.55 32.77 17.45C32.77 16.36 32.46 15.52 31.84 14.93C31.22 14.34 30.51 14.05 29.71 14.05C28.91 14.05 28.19 14.35 27.57 14.94C26.96 15.54 26.65 16.39 26.65 17.48C26.65 18.57 26.96 19.41 27.57 20C28.19 20.59 28.91 20.88 29.71 20.88C30.51 20.88 31.22 20.59 31.84 19.99ZM86.97 19.99C87.59 19.39 87.9 18.55 87.9 17.45C87.9 16.36 87.59 15.52 86.97 14.93C86.35 14.34 85.64 14.05 84.84 14.05C84.04 14.05 83.32 14.35 82.71 14.94C82.09 15.54 81.78 16.39 81.78 17.48C81.78 18.57 82.09 19.41 82.71 20C83.32 20.59 84.04 20.88 84.84 20.88C85.64 20.88 86.35 20.59 86.97 19.99ZM23.65 26.81L24.34 26.81L24.34 30.99L23.65 30.99L21.58 27.87L21.58 30.99L20.88 30.99L20.88 26.81L21.58 26.81L23.65 29.92L23.65 26.81ZM31.46 26.81L31.46 27.35L29.82 27.35L29.82 28.61L31.28 28.61L31.28 29.14L29.82 29.14L29.82 30.45L31.46 30.45L31.46 30.99L29.13 30.99L29.13 26.81L31.46 26.81ZM46.73 30.99L46.43 30.14L44.67 30.14L44.37 30.99L43.64 30.99L45.15 26.81L45.95 26.81L47.46 30.99L46.73 30.99ZM77.03 30.99L76.73 30.14L74.97 30.14L74.66 30.99L73.94 30.99L75.45 26.81L76.25 26.81L77.76 30.99L77.03 30.99ZM91.92 26.81L91.92 27.35L90.28 27.35L90.28 28.61L91.73 28.61L91.73 29.14L90.28 29.14L90.28 30.45L91.92 30.45L91.92 30.99L89.59 30.99L89.59 26.81L91.92 26.81ZM10.62 26.82L10.62 30.99L9.93 30.99L9.93 28.13L8.64 30.99L8.16 30.99L6.87 28.13L6.87 30.99L6.18 30.99L6.18 26.82L6.93 26.82L8.41 30.09L9.88 26.82L10.62 26.82ZM15.41 30.99L15.41 26.82L16.1 26.82L16.1 30.99L15.41 30.99ZM36.88 29.3L36.88 30.99L36.19 30.99L36.19 26.82L37.64 26.82C38.12 26.82 38.48 26.93 38.74 27.17C39 27.4 39.13 27.7 39.13 28.06C39.13 28.34 39.04 28.59 38.87 28.82C38.7 29.04 38.44 29.19 38.08 29.25L39.2 30.99L38.35 30.99L37.3 29.3L36.88 29.3ZM51.99 26.82L52.69 26.82L52.69 30.47L54.11 30.47L54.11 30.99L51.99 30.99L51.99 26.82ZM82.07 27.35L82.07 26.82L85.01 26.82L85.01 27.35L83.89 27.35L83.89 30.99L83.2 30.99L83.2 27.35L82.07 27.35ZM97.33 29.3L97.33 30.99L96.64 30.99L96.64 26.82L98.1 26.82C98.57 26.82 98.94 26.93 99.2 27.17C99.46 27.4 99.59 27.7 99.59 28.06C99.59 28.34 99.5 28.59 99.33 28.82C99.16 29.04 98.89 29.19 98.54 29.25L99.65 30.99L98.81 30.99L97.76 29.3L97.33 29.3ZM69 26.82L69.74 26.82L68.49 30.99L67.71 30.99L66.83 27.83L65.89 30.99L65.11 31L63.92 26.82L64.65 26.82L65.53 30.21L66.47 26.82L67.25 26.82L68.12 30.2L69 26.82ZM36.88 27.35L36.88 28.76L37.64 28.76C37.9 28.76 38.1 28.7 38.23 28.58C38.36 28.45 38.42 28.28 38.42 28.06C38.42 27.84 38.36 27.66 38.23 27.54C38.1 27.41 37.9 27.35 37.64 27.35L36.88 27.35ZM97.33 27.35L97.33 28.76L98.1 28.76C98.36 28.76 98.55 28.7 98.68 28.58C98.81 28.45 98.88 28.28 98.88 28.06C98.88 27.84 98.81 27.66 98.68 27.54C98.55 27.41 98.36 27.35 98.1 27.35L97.33 27.35ZM44.86 29.6L46.24 29.6L45.55 27.64L44.86 29.6ZM75.15 29.6L76.54 29.6L75.85 27.64L75.15 29.6Z" fill="#FFFFFF" fill-opacity="1.000000" fill-rule="evenodd"/>
	</g>
</svg>
