<svg width="92.999985" height="43.000000" viewBox="0 0 93 43" fill="none" xmlns="http://www.w3.org/2000/svg" xmlns:xlink="http://www.w3.org/1999/xlink">
	<desc>
			Created with Pixso.
	</desc>
	<defs>
		<filter id="filter_1_3167_dd" x="0.000000" y="0.000000" width="92.999985" height="43.000000" filterUnits="userSpaceOnUse" color-interpolation-filters="sRGB">
			<feFlood flood-opacity="0" result="BackgroundImageFix"/>
			<feBlend mode="normal" in="SourceGraphic" in2="BackgroundImageFix" result="shape"/>
			<feGaussianBlur stdDeviation="2" result="effect_layerBlur_1"/>
		</filter>
	</defs>
	<g filter="url(#filter_1_3167_dd)">
		<path id="logo" d="M69.49 10.5C68.97 11.01 68.35 11.26 67.6 11.26C66.86 11.26 66.23 11.01 65.72 10.5C65.2 9.99 64.94 9.37 64.94 8.63C64.94 7.89 65.2 7.26 65.72 6.75C66.23 6.25 66.86 6 67.6 6C68.35 6 68.97 6.25 69.49 6.75C70 7.26 70.26 7.89 70.26 8.63C70.26 9.37 70 9.99 69.49 10.5ZM6 26.77L6 8.38L10.54 8.38L10.54 26.77L6 26.77ZM15.23 24.91C13.85 23.54 13.17 21.73 13.17 19.46C13.17 17.19 13.85 15.38 15.23 14.02C16.6 12.67 18.37 11.99 20.55 11.99C22.36 11.99 23.89 12.43 25.15 13.32C26.41 14.2 27.24 15.46 27.65 17.1L22.73 17.1C22.31 16.23 21.61 15.79 20.65 15.79C19.68 15.79 18.96 16.13 18.49 16.8C18.02 17.47 17.79 18.36 17.79 19.46C17.79 20.56 18.02 21.44 18.49 22.12C18.96 22.79 19.65 23.13 20.55 23.13C21.12 23.13 21.56 23.03 21.88 22.84C22.2 22.65 22.48 22.3 22.73 21.82L27.65 21.82C27.24 23.39 26.4 24.64 25.12 25.56C23.85 26.49 22.32 26.95 20.55 26.95C18.37 26.95 16.6 26.27 15.23 24.91ZM31.11 24.88C29.62 23.5 28.87 21.68 28.87 19.43C28.87 17.18 29.61 15.38 31.1 14.02C32.59 12.67 34.43 11.99 36.63 11.99C38.82 11.99 40.66 12.67 42.14 14.02C43.62 15.38 44.36 17.18 44.36 19.43C44.36 21.68 43.62 23.5 42.15 24.88C40.68 26.26 38.85 26.95 36.65 26.95C34.46 26.95 32.61 26.26 31.11 24.88ZM74.58 24.91C73.2 23.54 72.52 21.73 72.52 19.46Q72.52 16.86 73.72 15.06Q74.09 14.5 74.58 14.02C75.95 12.67 77.72 11.99 79.9 11.99C81.71 11.99 83.24 12.43 84.5 13.32C85.76 14.2 86.59 15.46 87 17.1L82.08 17.1C81.66 16.23 80.96 15.79 80 15.79C79.03 15.79 78.31 16.13 77.84 16.8C77.37 17.47 77.14 18.36 77.14 19.46C77.14 20.56 77.37 21.44 77.84 22.12C78.31 22.79 79 23.13 79.9 23.13C80.47 23.13 80.91 23.03 81.23 22.84C81.55 22.65 81.83 22.3 82.08 21.82L87 21.82C86.59 23.39 85.75 24.64 84.47 25.56C83.2 26.49 81.67 26.95 79.9 26.95C77.72 26.95 75.95 26.27 74.58 24.91ZM51.56 12.15L51.56 14.3C52.49 12.76 53.99 11.99 56.05 11.99C57.75 11.99 59.12 12.55 60.18 13.67C61.23 14.79 61.76 16.31 61.76 18.23L61.76 26.77L57.24 26.77L57.24 18.83C57.24 17.89 56.99 17.16 56.48 16.64C55.98 16.13 55.28 15.87 54.4 15.87C53.51 15.87 52.82 16.13 52.31 16.64C51.81 17.16 51.56 17.89 51.56 18.83L51.56 26.77L47.01 26.77L47.01 12.15L51.56 12.15ZM65.34 26.77L65.34 12.15L69.89 12.15L69.89 26.77L65.34 26.77ZM38.83 22.18C39.43 21.55 39.73 20.65 39.73 19.46C39.73 18.27 39.42 17.37 38.8 16.75C38.18 16.13 37.45 15.82 36.6 15.82C35.75 15.82 35.02 16.13 34.41 16.75C33.8 17.37 33.49 18.27 33.49 19.46C33.49 20.65 33.81 21.55 34.43 22.18C35.06 22.81 35.8 23.13 36.65 23.13C37.5 23.13 38.23 22.81 38.83 22.18ZM41.85 33.9C41.73 33.9 41.64 33.93 41.56 33.99C41.49 34.05 41.45 34.13 41.45 34.25C41.45 34.36 41.49 34.45 41.56 34.52C41.62 34.59 41.71 34.64 41.82 34.68C41.93 34.72 42.05 34.75 42.19 34.79C42.32 34.82 42.45 34.86 42.59 34.91C42.72 34.96 42.84 35.02 42.95 35.09C43.06 35.16 43.15 35.26 43.22 35.39C43.29 35.51 43.32 35.67 43.32 35.85C43.32 36.16 43.19 36.43 42.93 36.66C42.67 36.88 42.33 37 41.9 37C41.48 37 41.14 36.89 40.88 36.69C40.62 36.49 40.49 36.21 40.49 35.83L41.46 35.83C41.49 36.13 41.64 36.28 41.93 36.28C42.06 36.28 42.16 36.24 42.24 36.17C42.31 36.11 42.35 36.02 42.35 35.91C42.35 35.81 42.32 35.72 42.25 35.65C42.18 35.59 42.09 35.53 41.98 35.49C41.87 35.45 41.75 35.42 41.62 35.39C41.48 35.35 41.35 35.31 41.22 35.26C41.08 35.21 40.96 35.15 40.85 35.08C40.74 35.01 40.66 34.92 40.59 34.79C40.52 34.66 40.49 34.5 40.49 34.33C40.49 33.98 40.62 33.7 40.88 33.5C41.14 33.29 41.47 33.18 41.88 33.18C42.29 33.18 42.62 33.27 42.87 33.46C43.12 33.64 43.25 33.92 43.26 34.32L42.26 34.32C42.25 34.18 42.2 34.08 42.13 34.01C42.05 33.93 41.96 33.9 41.85 33.9ZM30.67 33.23L30.67 33.91L29.3 33.91L29.3 34.72L30.5 34.72L30.5 35.4L29.3 35.4L29.3 36.27L30.67 36.27L30.67 36.96L28.38 36.96L28.38 33.23L30.67 33.23ZM36.38 33.23L37.3 33.23L37.3 36.96L36.38 36.96L34.84 34.61L34.84 36.96L33.92 36.96L33.92 33.23L34.84 33.23L36.38 35.57L36.38 33.23ZM56.88 33.23L56.88 33.91L55.51 33.91L55.51 34.72L56.72 34.72L56.72 35.4L55.51 35.4L55.51 36.27L56.88 36.27L56.88 36.96L54.59 36.96L54.59 33.23L56.88 33.23ZM62.53 36.96L62.32 36.33L60.96 36.33L60.75 36.96L59.77 36.96L61.09 33.23L62.2 33.23L63.51 36.96L62.53 36.96ZM25.11 33.24L25.11 36.96L24.19 36.96L24.19 34.86L23.31 36.96L22.63 36.96L21.76 34.86L21.76 36.96L20.84 36.96L20.84 33.24L21.89 33.24L22.98 35.8L24.06 33.24L25.11 33.24ZM50.7 33.24L51.69 33.24L50.63 36.96L49.58 36.96L48.92 34.6L48.26 36.96L47.21 36.96L46.14 33.24L47.12 33.24L47.78 35.91L48.45 33.24L49.49 33.24L50.14 35.87L50.7 33.24ZM67.35 35.51L67.35 36.96L66.43 36.96L66.43 33.24L67.92 33.24C68.35 33.24 68.69 33.35 68.94 33.57C69.18 33.79 69.3 34.06 69.3 34.38C69.3 34.59 69.24 34.8 69.1 35.01C68.97 35.21 68.75 35.36 68.45 35.44L69.38 36.96L68.3 36.96L67.45 35.51L67.35 35.51ZM67.35 33.92L67.35 34.82L67.92 34.82C68.06 34.82 68.17 34.78 68.25 34.7C68.33 34.62 68.37 34.51 68.37 34.38C68.37 34.25 68.33 34.14 68.24 34.05C68.16 33.97 68.05 33.92 67.92 33.92L67.35 33.92ZM61.19 35.64L62.09 35.64L61.64 34.32L61.19 35.64Z" fill="#FFFFFF" fill-opacity="1.000000" fill-rule="evenodd"/>
	</g>
</svg>
