<svg width="89.000000" height="54.999969" viewBox="0 0 89 55" fill="none" xmlns="http://www.w3.org/2000/svg" xmlns:xlink="http://www.w3.org/1999/xlink">
	<desc>
			Created with Pixso.
	</desc>
	<defs>
		<filter id="filter_1_3149_dd" x="0.000000" y="0.000000" width="89.000000" height="54.999969" filterUnits="userSpaceOnUse" color-interpolation-filters="sRGB">
			<feFlood flood-opacity="0" result="BackgroundImageFix"/>
			<feBlend mode="normal" in="SourceGraphic" in2="BackgroundImageFix" result="shape"/>
			<feGaussianBlur stdDeviation="2" result="effect_layerBlur_1"/>
		</filter>
	</defs>
	<g filter="url(#filter_1_3149_dd)">
		<path id="logo" d="M56.25 6L56.25 7.79L52.76 7.79L52.76 9.88L55.84 9.88L55.84 11.68L52.76 11.68L52.76 13.93L56.25 13.93L56.25 15.73L50.41 15.73L50.41 6L56.25 6ZM31.21 7.82L31.21 6.02L38.81 6.02L38.81 7.82L36.17 7.82L36.17 15.73L33.83 15.73L33.83 7.82L31.21 7.82ZM46.14 6.02L48.49 6.02L48.49 15.73L46.14 15.73L46.14 11.71L42.42 11.71L42.42 15.73L40.07 15.73L40.07 6.02L42.42 6.02L42.42 9.91L46.14 9.91L46.14 6.02ZM67.99 33.58C66.29 31.91 65.44 29.79 65.44 27.24C65.44 24.68 66.29 22.57 67.99 20.9C69.69 19.24 71.78 18.41 74.24 18.41C76.71 18.41 78.78 19.24 80.47 20.9C82.15 22.57 83 24.68 83 27.24C83 29.79 82.15 31.91 80.46 33.58C78.76 35.25 76.69 36.09 74.23 36.09C71.77 36.09 69.69 35.25 67.99 33.58ZM32.43 18.61L32.43 21.8L26.23 21.8L26.23 25.51L31.7 25.51L31.7 28.71L26.23 28.71L26.23 32.72L32.43 32.72L32.43 35.91L22.06 35.91L22.06 18.61L32.43 18.61ZM10.17 29.2L10.17 35.91L6 35.91L6 18.65L12.76 18.65C14.74 18.65 16.29 19.17 17.4 20.2C18.5 21.24 19.06 22.48 19.06 23.94C19.06 24.94 18.76 25.92 18.15 26.87C17.55 27.82 16.57 28.49 15.2 28.88L19.4 35.91L14.51 35.91L10.66 29.2L10.17 29.2ZM34.61 21.85L34.61 18.65L48.13 18.65L48.13 21.85L43.45 21.85L43.45 35.91L39.27 35.91L39.27 21.85L34.61 21.85ZM54.55 29.2L54.55 35.91L50.38 35.91L50.38 18.65L57.14 18.65C59.13 18.65 60.67 19.17 61.78 20.2C62.89 21.24 63.44 22.48 63.44 23.94C63.44 24.94 63.14 25.92 62.54 26.87C61.94 27.82 60.95 28.49 59.58 28.88L63.78 35.91L58.9 35.91L55.04 29.2L54.55 29.2ZM10.17 21.85L10.17 26.01L12.76 26.01C13.39 26.01 13.89 25.82 14.26 25.44C14.62 25.06 14.81 24.57 14.81 23.95C14.81 23.34 14.62 22.83 14.25 22.44C13.87 22.05 13.38 21.85 12.76 21.85L10.17 21.85ZM54.55 21.85L54.55 26.01L57.14 26.01C57.78 26.01 58.28 25.82 58.64 25.44C59.01 25.06 59.19 24.57 59.19 23.95C59.19 23.34 59.01 22.83 58.63 22.44C58.26 22.05 57.76 21.85 57.14 21.85L54.55 21.85ZM77.51 30.85C78.34 29.95 78.75 28.74 78.75 27.24C78.75 25.73 78.34 24.52 77.51 23.62C76.69 22.72 75.59 22.27 74.22 22.27C72.84 22.27 71.74 22.72 70.92 23.62C70.1 24.52 69.69 25.73 69.69 27.24C69.69 28.74 70.1 29.95 70.92 30.85C71.74 31.75 72.84 32.2 74.22 32.2C75.59 32.2 76.69 31.75 77.51 30.85ZM18.51 44.68C18.36 44.68 18.23 44.72 18.13 44.8C18.03 44.89 17.98 45.01 17.98 45.16C17.98 45.32 18.03 45.45 18.12 45.55C18.21 45.64 18.33 45.72 18.48 45.77C18.63 45.82 18.8 45.87 18.98 45.91C19.16 45.96 19.35 46.02 19.53 46.09C19.71 46.15 19.87 46.23 20.02 46.33C20.17 46.43 20.29 46.57 20.39 46.75C20.48 46.93 20.53 47.15 20.53 47.4C20.53 47.84 20.35 48.21 19.99 48.53C19.64 48.84 19.17 49 18.59 49C18.01 49 17.54 48.85 17.19 48.57C16.83 48.29 16.66 47.89 16.66 47.38L17.99 47.38C18.03 47.79 18.24 48 18.62 48C18.81 48 18.95 47.95 19.05 47.85C19.15 47.76 19.2 47.63 19.2 47.49C19.2 47.34 19.16 47.22 19.07 47.12C18.97 47.03 18.85 46.96 18.7 46.9C18.55 46.85 18.39 46.8 18.2 46.75C18.02 46.7 17.84 46.65 17.66 46.58C17.47 46.51 17.31 46.42 17.16 46.33C17.01 46.23 16.89 46.09 16.8 45.91C16.7 45.74 16.66 45.52 16.66 45.28C16.66 44.79 16.83 44.41 17.19 44.11C17.55 43.82 18.01 43.68 18.56 43.68C19.12 43.68 19.57 43.81 19.91 44.06C20.25 44.31 20.43 44.71 20.45 45.26L19.08 45.26C19.06 45.07 19 44.93 18.9 44.83C18.8 44.73 18.67 44.68 18.51 44.68ZM63.1 48.24C62.58 47.74 62.33 47.1 62.33 46.33C62.33 45.56 62.58 44.93 63.1 44.43C63.61 43.93 64.23 43.68 64.98 43.68C65.72 43.68 66.34 43.93 66.85 44.43C67.36 44.93 67.61 45.56 67.61 46.33C67.61 47.1 67.35 47.74 66.84 48.24C66.34 48.74 65.71 49 64.97 49C64.23 49 63.61 48.74 63.1 48.24ZM25.86 44.71L25.86 43.75L29.93 43.75L29.93 44.71L28.52 44.71L28.52 48.94L27.27 48.94L27.27 44.71L25.86 44.71ZM47.26 43.75C48.08 43.75 48.76 43.99 49.29 44.47C49.82 44.95 50.08 45.58 50.08 46.34C50.08 47.11 49.82 47.73 49.29 48.22C48.76 48.7 48.08 48.94 47.26 48.94L45.45 48.94L45.45 43.75L47.26 43.75ZM55.57 48.94L55.57 43.75L56.83 43.75L56.83 48.94L55.57 48.94ZM35.36 46.85L35.36 43.75L36.61 43.75L36.61 46.85C36.61 47.16 36.69 47.4 36.84 47.57C36.99 47.73 37.22 47.82 37.51 47.82C37.8 47.82 38.03 47.73 38.19 47.57C38.34 47.4 38.42 47.16 38.42 46.85L38.42 43.75L39.68 43.75L39.68 46.85C39.68 47.31 39.57 47.7 39.36 48.04C39.14 48.37 38.87 48.61 38.55 48.77C38.22 48.92 37.87 49 37.49 49C36.89 49 36.39 48.81 35.97 48.43C35.56 48.06 35.36 47.53 35.36 46.85ZM46.7 47.98L47.26 47.98C47.74 47.98 48.12 47.83 48.39 47.54C48.67 47.24 48.8 46.85 48.8 46.35C48.8 45.85 48.67 45.45 48.39 45.16C48.12 44.86 47.74 44.71 47.26 44.71L46.7 44.71L46.7 47.98ZM65.96 47.42C66.21 47.15 66.33 46.79 66.33 46.33C66.33 45.88 66.21 45.52 65.96 45.25C65.71 44.97 65.38 44.84 64.97 44.84C64.56 44.84 64.22 44.97 63.98 45.25C63.73 45.52 63.61 45.88 63.61 46.33C63.61 46.79 63.73 47.15 63.98 47.42C64.22 47.69 64.56 47.83 64.97 47.83C65.38 47.83 65.71 47.69 65.96 47.42Z" fill="#FFFFFF" fill-opacity="1.000000" fill-rule="evenodd"/>
	</g>
</svg>
