<svg width="96.000000" height="79.999939" viewBox="0 0 96 79.9999" fill="none" xmlns="http://www.w3.org/2000/svg" xmlns:xlink="http://www.w3.org/1999/xlink">
	<desc>
			Created with Pixso.
	</desc>
	<defs>
		<filter id="filter_1_3155_dd" x="0.000000" y="0.000000" width="96.000000" height="79.999939" filterUnits="userSpaceOnUse" color-interpolation-filters="sRGB">
			<feFlood flood-opacity="0" result="BackgroundImageFix"/>
			<feBlend mode="normal" in="SourceGraphic" in2="BackgroundImageFix" result="shape"/>
			<feGaussianBlur stdDeviation="2" result="effect_layerBlur_1"/>
		</filter>
	</defs>
	<g filter="url(#filter_1_3155_dd)">
		<path id="logo" d="M57.12 29.21C57.9 28.46 58.75 27.91 59.73 27.56C59.99 27.41 60.37 27.38 60.7 27.44C61.17 27.46 61.6 27.64 62.16 27.71C62.14 28.17 61.76 28.43 61.44 28.67C59.73 30.21 58.31 31.98 56.71 33.64C56.48 33.88 56.35 34.13 56.35 34.41C56.35 34.51 56.37 34.61 56.4 34.71C56.58 35.35 56.64 36.09 56.83 36.72C56.83 36.76 56.84 36.81 56.85 36.86C56.87 37.01 56.89 37.16 56.89 37.3C56.89 37.56 56.81 37.8 56.51 38.02C56.35 38.13 56.3 38.28 56.3 38.45C56.3 38.63 56.36 38.85 56.44 39.1C56.64 38.74 56.65 38.51 56.75 38.33C57.01 38.3 57.15 38.57 57.15 38.89C57.15 39.13 57.07 39.4 56.88 39.58C56.86 39.61 56.84 39.64 56.82 39.66C56.8 39.68 56.78 39.71 56.78 39.74C56.78 39.74 56.78 39.75 56.78 39.76C56.71 39.78 56.66 39.87 56.56 40.05C57.07 41.8 57.61 43.69 58.07 45.53C58.21 46.02 58.26 46.46 58.34 46.98C58.39 48.48 58.93 49.84 59.55 51.18C60.09 52.24 60.47 53.27 60.87 54.37C61.09 55.14 61.39 55.89 61.61 56.66C61.77 57.22 61.86 57.8 61.97 58.45C61.7 58.3 61.42 58.15 61.15 58C61.12 58.16 61.07 58.25 61.02 58.34C61 58.37 60.99 58.41 60.99 58.45C60.99 58.53 61.02 58.62 61.05 58.71C60.92 58.77 60.77 58.81 60.63 58.84C60.25 58.94 59.9 59.03 59.9 59.43C59.9 59.51 59.91 59.6 59.95 59.71C59.49 59.99 59 59.9 58.65 59.77C58.12 59.54 57.61 59.38 57.2 59.04C55.76 57.78 54.63 56.28 53.69 54.65C53.68 54.6 53.65 54.54 53.63 54.48C53.58 54.37 53.54 54.25 53.54 54.12C53.54 53.99 53.58 53.86 53.73 53.73C53.75 53.73 53.75 53.7 53.75 53.67C53.75 53.54 53.67 53.25 53.62 53.08C53.32 52.56 53.01 52.04 52.7 51.52C50.92 48.84 49.83 45.89 48.73 42.87C48.55 42.54 48.38 42.21 48.19 41.81C47.94 42.03 47.68 42.18 47.5 42.38C46.5 43.72 45.13 44.56 43.79 45.55C42.75 46.22 41.57 46.93 40.43 47.56C39.34 48.32 38.81 49.68 38.5 50.75C37.9 53.2 36.86 55.46 36.21 57.76C36.01 58.12 35.84 58.33 35.43 58.52C35 58.68 34.86 58.86 34.86 59.03C34.86 59.2 34.99 59.36 35.1 59.5C35.18 59.6 35.25 59.68 35.25 59.75C35.25 59.84 35.11 59.89 34.66 59.87C32.37 60.91 31.99 60.11 31.48 59.04C31.22 58.48 30.92 57.86 30.31 57.38C31.03 55.59 31.81 53.78 32.62 52.03C33.06 51.15 33.52 50.34 33.98 49.53C34.23 49.08 34.29 48.97 34.29 48.96C34.29 48.95 34.29 48.95 34.28 48.96C34.26 48.97 34.23 48.98 34.23 48.94C34.23 48.87 34.28 48.7 34.46 48.26C34.18 48.11 33.93 48.03 33.65 47.88C33.05 47.67 32.52 47.44 31.92 47.23C31.46 46.98 31.22 46.67 31.22 46.14C31.66 45.79 32.15 45.88 32.66 46.04C33.4 46.21 34.2 46.28 34.99 46.36C35.16 46.39 35.49 46.22 35.59 46.04C36.13 44.98 36.58 43.87 37.13 42.81C37.21 42.56 37.22 42.32 37.32 42.14C38.64 39.5 39.26 36.59 40.16 33.84C41.2 30.51 42.15 27.14 43.2 23.81C43.48 22.98 43.63 22.18 43.63 21.39C43.63 20.91 43.58 20.43 43.47 19.95C43.16 18.37 43.02 16.82 42.88 15.26C42.87 14.98 42.86 14.71 42.86 14.43C42.86 11.99 43.2 9.54 43.62 7.17C43.82 6.28 44.02 6.15 44.86 6.14C46.02 6.12 47.15 6.03 48.3 6C48.68 5.97 49.07 6.01 49.44 6.21C50.17 6.61 50.91 7.01 51.59 7.5C51.91 7.79 52.17 8.17 52.34 8.5C53.15 9.94 53.45 11.52 53.61 13.14C53.92 15.26 54.2 17.3 54.43 19.43C54.5 19.64 54.51 19.94 54.59 20.22C54.94 21.43 55.06 22.66 55.06 23.91C55.06 24.25 55.05 24.6 55.03 24.94C55.02 25.13 55.01 25.32 55.01 25.51C55.01 26.21 55.1 26.91 55.2 27.61C55.25 27.95 55.3 28.3 55.33 28.65C55.4 29.16 55.55 29.65 55.69 30.14C55.78 30.19 55.78 30.19 55.87 30.24C56.31 29.89 56.75 29.54 57.12 29.21ZM46.56 38.32C46.9 38.05 47.01 37.8 47.01 37.46C47.01 37.36 47 37.26 46.99 37.14C46.66 36.02 46.39 34.81 46.13 33.67C44.68 26.73 44 29.78 43.01 34.23C42.89 34.74 42.78 35.26 42.66 35.79C41.87 37.75 41.51 39.21 41.51 40.15C41.51 42.39 43.5 41.79 46.56 38.32ZM25.91 69.94C25.76 69.94 25.64 69.98 25.54 70.06C25.45 70.14 25.4 70.25 25.4 70.4C25.4 70.55 25.44 70.67 25.53 70.76C25.62 70.85 25.74 70.92 25.88 70.96C26.03 71.01 26.18 71.06 26.36 71.1C26.54 71.15 26.71 71.2 26.89 71.26C27.06 71.33 27.22 71.4 27.36 71.49C27.5 71.59 27.62 71.72 27.71 71.89C27.8 72.06 27.84 72.26 27.84 72.5C27.84 72.91 27.67 73.26 27.33 73.55C26.99 73.85 26.54 73.99 25.99 73.99C25.43 73.99 24.98 73.86 24.64 73.6C24.3 73.33 24.13 72.96 24.13 72.47L25.41 72.47C25.45 72.86 25.65 73.06 26.02 73.06C26.19 73.06 26.33 73.01 26.43 72.92C26.53 72.83 26.58 72.72 26.58 72.58C26.58 72.44 26.53 72.33 26.44 72.24C26.35 72.15 26.24 72.08 26.09 72.03C25.95 71.98 25.79 71.93 25.61 71.89C25.44 71.84 25.26 71.79 25.09 71.72C24.92 71.66 24.76 71.58 24.61 71.49C24.47 71.4 24.35 71.27 24.27 71.1C24.18 70.93 24.13 70.73 24.13 70.5C24.13 70.05 24.3 69.69 24.65 69.41C24.99 69.14 25.43 69 25.96 69C26.49 69 26.92 69.12 27.25 69.36C27.58 69.6 27.75 69.97 27.77 70.49L26.46 70.49C26.44 70.31 26.38 70.18 26.28 70.08C26.19 69.99 26.06 69.94 25.91 69.94ZM40.51 73.28C40.02 72.81 39.78 72.22 39.78 71.5C39.78 70.77 40.02 70.18 40.51 69.71C41 69.24 41.6 69 42.31 69C42.86 69 43.35 69.15 43.78 69.43C44.2 69.72 44.5 70.12 44.67 70.63L43.23 70.63C43.05 70.27 42.75 70.09 42.33 70.09C41.92 70.09 41.59 70.22 41.36 70.48C41.12 70.73 41 71.07 41 71.5C41 71.92 41.12 72.26 41.36 72.52C41.59 72.77 41.91 72.9 42.31 72.9C42.6 72.9 42.83 72.83 43.01 72.69C43.19 72.55 43.31 72.36 43.38 72.12L41.98 72.12L41.98 71.22L44.67 71.22L44.67 72.12C44.58 72.57 44.33 72.98 43.93 73.36C43.74 73.55 43.5 73.7 43.22 73.81C42.93 73.93 42.63 73.99 42.31 73.99C41.6 73.99 41 73.75 40.51 73.28ZM18.7 69.06L18.7 69.96L16.91 69.96L16.91 71.01L18.48 71.01L18.48 71.91L16.91 71.91L16.91 73.04L18.7 73.04L18.7 73.95L15.7 73.95L15.7 69.06L18.7 69.06ZM53.17 69.06L54.37 69.06L54.37 73.95L53.17 73.95L51.16 70.87L51.16 73.95L49.95 73.95L49.95 69.06L51.16 69.06L53.17 72.13L53.17 69.06ZM7.73 69.07C8.52 69.07 9.17 69.3 9.68 69.75C10.18 70.2 10.44 70.79 10.44 71.51C10.44 72.23 10.18 72.81 9.68 73.26C9.17 73.72 8.52 73.94 7.73 73.94L6 73.94L6 69.07L7.73 69.07ZM33.3 73.95L33.3 69.07L34.5 69.07L34.5 73.95L33.3 73.95ZM69.67 69.07L70.87 69.07L70.87 73.95L69.67 73.95L69.67 71.93L67.76 71.93L67.76 73.95L66.55 73.95L66.55 69.07L67.76 69.07L67.76 71.02L69.67 71.02L69.67 69.07ZM86.09 69.07L88.23 69.07C88.74 69.07 89.14 69.19 89.43 69.43C89.73 69.67 89.88 69.98 89.88 70.35C89.88 70.9 89.56 71.27 88.9 71.47C89.24 71.51 89.5 71.65 89.7 71.88C89.9 72.1 90 72.37 90 72.68C90 73.06 89.85 73.37 89.56 73.6C89.27 73.83 88.87 73.95 88.35 73.95L86.09 73.95L86.09 69.07ZM76.41 71.98L76.41 69.07L77.62 69.07L77.62 71.98C77.62 72.27 77.69 72.5 77.83 72.66C77.98 72.81 78.19 72.89 78.47 72.89C78.76 72.89 78.97 72.81 79.12 72.66C79.27 72.5 79.35 72.27 79.35 71.98L79.35 69.07L80.55 69.07L80.55 71.98C80.55 72.41 80.45 72.78 80.25 73.1C80.04 73.41 79.78 73.64 79.47 73.78C79.16 73.92 78.82 73.99 78.45 73.99C77.88 73.99 77.4 73.82 77 73.47C76.61 73.12 76.41 72.62 76.41 71.98ZM7.2 73.04L7.73 73.04C8.19 73.04 8.56 72.9 8.82 72.63C9.08 72.35 9.21 71.98 9.21 71.51C9.21 71.04 9.08 70.67 8.82 70.39C8.56 70.11 8.19 69.97 7.73 69.97L7.2 69.97L7.2 73.04ZM87.29 69.97L87.29 71.03L88.08 71.03C88.25 71.03 88.39 70.99 88.5 70.9C88.6 70.81 88.66 70.68 88.66 70.51C88.66 70.33 88.6 70.2 88.5 70.11C88.39 70.02 88.25 69.97 88.08 69.97L87.29 69.97ZM87.29 73.04L88.2 73.04C88.36 73.04 88.5 72.99 88.61 72.9C88.72 72.8 88.77 72.67 88.77 72.49C88.77 72.32 88.72 72.19 88.61 72.09C88.51 71.98 88.38 71.93 88.21 71.93L87.29 71.93L87.29 73.04Z" fill="#FFFFFF" fill-opacity="1.000000" fill-rule="evenodd"/>
	</g>
</svg>
